<svg id="Layer_1" data-name="Layer 1" xmlns="http://www.w3.org/2000/svg" viewBox="0 0 1318.61 444.67"><defs><style>.cls-1{fill:#212529;}.cls-2{fill:#dbeaf8;}.cls-3{fill:#036;}.cls-4{fill:#fdfdfd;}</style></defs><path class="cls-1" d="M323.44,407.17c-3,6.9,1.48-4.15,3.38-6,2.56-2.52,7.58-4.46,6.18-8.87-.89-2.79-.39-4.59,1-6.25,1.78-2.12,4.07-.26,6.08.18,1.2.27,2.27,1.5,3.42,1.53,3.56.08,5.3,4.31,8.86,3.81,11.87-1.64,17-12.38,24.75-19.27,3.72-3.32,6.5-8.9,10.81-12.1,3.11-2.31,3.42-4.7,4.08-7.85a16.26,16.26,0,0,0,.28-3.55c3.64-1.88,7.26-3.91,7.89-8.81.18-1.36,1.41-2,2.9-1.84,3.2-3.22-.82-6.55.14-9.81-.27-1.17.68-2,.85-3,.05-.27.13-.54.18-.8,1.89-3.55,5.78-6,5.51-10.61-.07-1.17,1.26-2.15,2.55-3.07,3.07-2.18,7.15-4.72,7.91-7.82a13.87,13.87,0,0,1,3.64-7.11c2.62-2.55,3.87-5.31,3.5-8.95-.52-5.2,1.94-9.88,4-14.22,2.18-4.63,1.4-9.42,2-13.94.55-4-2.68-8.77-4.82-12.9-1.83-3.55-1.31-5.89,1.93-8,2.82-1.89,4.83-5,4.52-8-.44-4.27,1.24-8.3-.07-12.91-.77-2.71-2.93-6.87-.52-10.55,2.13-3.25.71-6.34-1.17-9.28-.83-1.3-2.52-2.43-1.51-4.3,4.3-8-2.83-14.38-3.39-21.78-.2-2.58.83-6-.94-8.42-3.18-4.33-3.72-10.14-7.95-13.81a4.08,4.08,0,0,1-1.6-3.23c-.09-10.66-4.66-20.1-9-29.42a17,17,0,0,0-1.52-2.57c0-.13.09-.25.12-.38.42-1.88,3.87-1.61,3.38-4.32-.79-5.3-2.35-10.11-7.62-12.86-1.19-.62-1.34-2.12-1.44-3.39-.54-6.81-5.48-11.29-10.24-14.54-3.37-2.3-6.41-4.08-7.95-7.87-.45-1.12-1.48-1.47-2.52-1.89-3.33-1.36-6.62-2.81-9.93-4.22-3.3-2-5.73,2-7.56,1.77-.39-.06-.76-.08-1.15-.12-.8-1.07-1.11-1.62-.71-1.38-.86-7.1-6.21-11.3-11.13-15.22-3.06-2.43-6.77-4-9.89-6.77-2-1.83-4.5-4.6-7.33-5.27a37.47,37.47,0,0,1-14.21-6.48c-3.27-2.41-9.48-3-11.28-.61-3.34,4.49-4.4,1.72-7.32.27-5.34-2.65-10.43-7.5-17.31-4.4-1.92.87-1.79-.87-2.61-1.41-3.22-2.14.41-5.28-2-7.71-8.24-8.21-19.55-7.36-29.49-9.57C243.43,6,236.86,7,230.91,4.82a5.49,5.49,0,0,0-3.16,0c-7,1.39-11.48,8.51-19.2,8.3-.36,0-1,.68-1.06,1.1-.61,4.94-3.06,4.4-5.78,3.36a11,11,0,0,0,1.85-2.25c-6.7-2.23-13.44-4.34-20.08-6.74-3.38-1.22-7.73-1-9.17,1-4.87,6.55-14,1.62-18.67,7.58-.19.23-1.33-.21-2-.43-1.51-.5-2.87-.51-3.86,1-1.19,1.78-2.69,2.18-4.7,1.32-1.84-.79-2.88.69-4.27,1.55-6.37,3.95-8.57,10.16-10.22,16.71-5.59,2.6-9.18,3.86-9.9,2.18-10.22-.58-18.39,6.18-28,7.66-6.87,1-7.39,9.4-14.08,11.5C74,60,70.64,64.88,66.91,68.46a11.81,11.81,0,0,0-3.79,8c-.44,7.74-.74,9-6.9,12.55-1.52.89-1.1,3.62-3.58,3.62-11.19,0-15.7,9.24-22.1,15.85a3,3,0,0,0-.48,1.51c-.73,4.56-2.48,9.68-5.64,12-6,4.37-5,11.11-5.92,16.07a27.23,27.23,0,0,0,3.89,18.84c1.26,1.9.31,3-.46,4.37-.13.76-.34,2.45-.59,4.72a22.16,22.16,0,0,1-3.69,4.31C12.49,174.39,8.48,181,10.49,189c.75,3-.33,6.41-.6,9.6-.3,3.46-4.53,5.79-2.91,8.89,1.84,3.56,1.14,6.84.1,9.87a8,8,0,0,0,1.24,8.09c2,2.64,1.71,7.35,5.88,8.05-.49,3.52-.9,5.83-1.18,6-.34,2.57,4.12,5.74,0,7.55-6.82,3-7.06,9-8.16,14.71-1.33,6.92,2.38,13.37,2.08,20.22,0,.6.63,1.24,1,1.85,2.65,4.36,6,8.64,6.13,13.82.09,4.3,2.35,6.54,5.38,8.37,4.46,2.7,9.5,3.81,12.39,9.51,1.23,2.42,1.57,5.87,4.35,8.14,5,4.06-1,5.19-2.76,7.41a2,2,0,0,0-.25,1.55c1.33,4.41.23,10,6,12.32a5.37,5.37,0,0,1,2.46,2.79c1.88,4.42,3.54,8.68,7.63,12,1.75,1.43,4.24,3.39,5.12,5.34,2.57,5.69,7.66,9,12,12.63,1.73,1.46,5.9,4.39,8.57,3.07,5.68-2.81,11.8-.36,17.33-2.56.31-.87,4.49.47,10.62,3,1,1.7,2.18,3.32,2,5.45-1.57,1.14-3.23,3.29-1.1,4.16,3.08,1.25,2.4,3.66,3.31,5.63,5.14,11.22,14.69,17.16,25.92,21a2.13,2.13,0,0,0,2.8-1c1.16,1.24,2.11,2.72,3.91,3.16,2.39,2.9,5.17,4.68,9.12,3.21,1.69-1.26,4.44,1.7,5.66-1.4a26.3,26.3,0,0,0,10.66-.86c1.84.55,3.47-.49,5.14-.64a5.79,5.79,0,0,0,3-1.24c2.58,3.75,4.48,7.8,4.4,12.72,0,1.42,1.09,1.74,2.07,2.15,3.73,1.61,7,4,11.47,4.19,5.75.29,11.69,3.11,17.08,2.18,6-1,11.38-.27,17.14.1a31.12,31.12,0,0,0,12.13-2.18c4.82-1.81,6.89-7.58,12.13-9.43,2.3-.81,3.12-5.66,6.54-3.4,2.55,1.69,5.65,1.34,7.83,2.86,4.46,3.11,6.88,3.18,12.73,2.53,3.69-.41,6.69-2.23,9.67-2.75,3.19-.56,4.85-3.68,8-3.21Z"/><path class="cls-1" d="M206,444.67a39.48,39.48,0,0,1-8.71-1.29A39.22,39.22,0,0,0,191,442.3c-4.24-.2-7.5-1.84-10.38-3.28-.88-.44-1.76-.89-2.67-1.28-3.32-1.35-4.89-3.49-4.83-6.43a14.21,14.21,0,0,0-1.72-6.93c-.24,0-.5.07-.76.09a5.47,5.47,0,0,0-1,.23,10.77,10.77,0,0,1-4.35.54,28.87,28.87,0,0,1-8.85.9c-1.33,1-3.31,1.67-6.24,1-3.46,1.26-8.43,1.53-13.24-3.65a9.2,9.2,0,0,1-2.12-1.36,7.23,7.23,0,0,1-3.39-.33c-14.44-4.88-23.54-12.31-28.61-23.38a12.34,12.34,0,0,1-.84-2.78c-2.21-1.41-3.59-3.15-3.85-5.29a6.84,6.84,0,0,1,1.69-5.17c-.05-.08-.1-.16-.14-.24a53.23,53.23,0,0,0-6.28-2.22c-6.42,2.31-12.36.15-16.52,2.22-5.26,2.56-11.23-1.72-13.55-3.69l-2.38-1.95c-3.87-3.12-8.26-6.65-10.8-12.28-.39-.87-2.61-2.67-3.56-3.43-5.05-4.11-7.12-9-9-13.34L37.1,349c-6.31-2.49-7.17-8.24-7.73-12a20.12,20.12,0,0,0-.57-3,6.44,6.44,0,0,1,1.07-5.73,10.61,10.61,0,0,1,2.33-2.07,17.52,17.52,0,0,1-3.7-6.68,19.19,19.19,0,0,0-.73-1.87c-1.5-2.95-3.8-4.1-7-5.69-1.25-.63-2.5-1.25-3.71-2-3.19-1.93-7.43-5.29-7.58-12.17-.07-3-2-6.05-4-9.26L4,286.26a6.73,6.73,0,0,1-1.65-4.41,31,31,0,0,0-1.08-7.76C.43,270.17-.55,265.75.37,261L.7,259.1c.86-4.9,2-11.47,8.76-15.3a8.46,8.46,0,0,1-1-4.82l.57-2.1c0-.23.09-.48.13-.75a13.31,13.31,0,0,1-3.67-5.94,9.93,9.93,0,0,0-.86-2,12.46,12.46,0,0,1-1.91-12.3c1-2.94,1.05-4.59.17-6.29-2.17-4.17.15-7.69,1.39-9.57a7.81,7.81,0,0,0,1-1.83c.09-1.07.27-2.17.44-3.26a13.9,13.9,0,0,0,.28-4.84c-2.14-8.61,1.13-17.35,8.76-23.4a13.42,13.42,0,0,0,2.12-2.45c.21-1.79.38-3.13.49-3.79l.71-1.77A31.77,31.77,0,0,1,14,137.27c.17-1,.25-2,.35-3.05.44-4.76,1-11.27,7.37-15.91,1.64-1.2,3.14-4.75,3.83-9a6.87,6.87,0,0,1,1.69-4c1.35-1.39,2.6-2.9,3.85-4.4,4.55-5.46,10.15-12.19,20.09-12.8a7.12,7.12,0,0,1,2.74-3c4.27-2.49,4.27-2.49,4.64-8.87a16.35,16.35,0,0,1,5.18-11c.91-.87,1.8-1.83,2.69-2.8,2.93-3.15,6.26-6.74,10.78-8.15,1.69-.53,2.78-1.94,4.43-4.18,2.06-2.81,4.88-6.65,10.32-7.48a47.51,47.51,0,0,0,10.56-3.42c5.63-2.3,11.43-4.73,18.43-4.28l2.88.29c.69-.24,1.62-.62,2.9-1.18,1.73-6.24,4.5-12.88,11.68-17.32,1.7-1.29,4.37-3.34,8-2.07a7.25,7.25,0,0,1,7.86-2.46c3.22-2.44,7-2.81,10-3.09,3.65-.35,5.25-.65,6.41-2.21,3-4,9.49-4.33,14.4-2.55,4.67,1.69,9.39,3.23,14.11,4.78l5.11,1.68a5.36,5.36,0,0,1,4.4-2.2C211.67,8.8,214.07,7,217,5s5.93-3.93,9.88-4.71a9.64,9.64,0,0,1,5.63.23c2.78,1,6,1.17,9.33,1.33a49.53,49.53,0,0,1,8.31.89c2.42.54,4.92.88,7.44,1.23,8,1.11,17.05,2.36,24.27,9.56A8,8,0,0,1,284,20.83c6.45-1.69,11.68,1.38,15.64,3.7,1,.59,2,1.18,3,1.69a15.2,15.2,0,0,1,1.7,1c3.9-5.08,13.14-3.53,17.59-.24a32.84,32.84,0,0,0,12.53,5.71C338,33.5,340.6,36,342.72,38l1,1a31.2,31.2,0,0,0,4.88,3.39,47.74,47.74,0,0,1,4.8,3.21c4.48,3.57,9.79,7.79,12,14.41a8.07,8.07,0,0,1,8.06.19l2.41,1c2.3,1,4.6,2,6.91,2.91a8.07,8.07,0,0,1,5,4.41c.84,2.07,2.42,3.21,5.39,5.21l.9.61c4.9,3.34,11.5,8.84,12.22,18a1.08,1.08,0,0,1,0,.26c6.47,3.89,8.23,10.38,9,15.68a6.2,6.2,0,0,1-2.29,6.16l.47,1c4.3,9.31,8.76,18.94,8.85,30.15,3.31,2.67,4.82,6.25,6.14,9.4a24.39,24.39,0,0,0,2.53,5c2.22,3,2,6.4,1.85,8.88a13.52,13.52,0,0,0,0,1.89,22.24,22.24,0,0,0,2,6.43c1.91,4.54,4.27,10.13,1.46,16.56.31.41.52.69.7,1,1.42,2.22,5.18,8.11,1.14,14.25-.72,1.11-.25,2.73.55,5.08.21.61.4,1.2.55,1.73a23.47,23.47,0,0,1,.4,9.4,20.63,20.63,0,0,0-.18,4.28c.46,4.58-2,9.28-6.53,12.28a3.92,3.92,0,0,0-1,.83,10.36,10.36,0,0,0,.57,1.33l1.19,2.22c2.23,4,4.75,8.61,4.1,13.4-.18,1.3-.22,2.63-.27,4-.12,3.42-.27,7.31-2.15,11.29l-.44.95c-1.79,3.76-3.49,7.31-3.13,10.87a14.79,14.79,0,0,1-4.85,12.68,9.57,9.57,0,0,0-2.4,4.93c-1.1,4.44-5.35,7.41-8.76,9.79l-.94.66-.63.46c-.23,4.1-2.51,7-4.22,9.09a21.76,21.76,0,0,0-1.54,2.07,10.55,10.55,0,0,1-.69,2l.07.29-.34,1.15c0,.06.28.81.44,1.31.69,2.12,2.13,6.53-1.71,10.42l-1.58,1.6-.53-.07c-1.35,4.47-4.63,7-7.48,8.69-.06.55-.14,1.12-.26,1.69-.78,3.78-1.53,7.39-5.83,10.59a29.71,29.71,0,0,0-5.28,5.86,41.74,41.74,0,0,1-5.22,6,66.63,66.63,0,0,0-5.86,6.21c-5.23,6-11.16,12.77-21.29,14.18-3.77.56-6.32-1.45-8-2.73a7.33,7.33,0,0,0-1.58-1,8,8,0,0,1-4.14-1.46l-2.12-.8a6,6,0,0,0,.21.85c2,6.4-2.92,10.1-5.57,12.09a17.87,17.87,0,0,0-1.78,1.42,32.18,32.18,0,0,0-2.05,3.82l-.33.74c-.31.71-.6,1.38-.91,2v0h0c-.93,1.8-2,3-4.24,3h-.11l-1.37,0L295.45,429.2l-1.62-.25c-.11.06-.77.51-1.21.8a13.69,13.69,0,0,1-5.31,2.39,19,19,0,0,0-3.23,1,28.32,28.32,0,0,1-6.73,1.79c-6.52.7-10.2.61-15.85-3.32a8.13,8.13,0,0,0-2.12-.65,19.27,19.27,0,0,1-4.2-1.35,8.77,8.77,0,0,1-3.93,3.09c-1.63.58-3,2-4.54,3.7-1.94,2.09-4.15,4.45-7.5,5.7a36.88,36.88,0,0,1-14,2.46l-3.18-.23c-4.39-.34-8.57-.68-12.91.08A17.85,17.85,0,0,1,206,444.67Zm-23.79-15c1,.45,1.76.82,2.5,1.2,2.38,1.18,4.44,2.22,6.75,2.33a46.82,46.82,0,0,1,7.84,1.29c3,.68,5.92,1.37,8.24.94,5.45-.92,10.39-.54,15.16-.18l3,.23a26.53,26.53,0,0,0,10.24-1.9c1.35-.51,2.59-1.84,4-3.38,2-2.12,4.44-4.76,8.18-6.09-.38.15-.18-.16,0-.42,4-5.16,7.94-4.2,10.55-2.47a8.6,8.6,0,0,0,2.63.86,14.36,14.36,0,0,1,5.29,2.06c3.2,2.23,4.4,2.32,9.62,1.74a20.37,20.37,0,0,0,4.61-1.29,28.16,28.16,0,0,1,4.79-1.43,6.3,6.3,0,0,0,1.81-1,11.57,11.57,0,0,1,5.76-2.32L319.83,404a48.31,48.31,0,0,1,3.79-6.11,27.33,27.33,0,0,1,2.7-2.21,11.23,11.23,0,0,0,2.4-2.11,10.14,10.14,0,0,1,1.8-10.48c3.43-4,7.93-2.3,9.61-1.66a6.87,6.87,0,0,0,.92.33,9.47,9.47,0,0,1,3,1.35l.18.12a11.92,11.92,0,0,1,6.24,2.87,8.86,8.86,0,0,0,1.43,1c6.57-.95,10.7-5.68,15.49-11.16a76.59,76.59,0,0,1,6.67-7,35.38,35.38,0,0,0,4-4.73,37.59,37.59,0,0,1,7.1-7.63c1.45-1.08,1.65-1.83,2.21-4.51a13.66,13.66,0,0,0,.31-3.18l0-2.81,2.5-1.29c3.77-2,5.17-3.05,5.46-5.33a6.53,6.53,0,0,1,3.85-5.22l-.14-.42a11.69,11.69,0,0,1-.76-5.71,7.64,7.64,0,0,1,1-3.69l.65-2a27.29,27.29,0,0,1,2.76-4c1.64-2,2.3-3,2.22-4.23-.22-3.75,2.83-5.9,4.47-7.07l1-.69c1.57-1.1,4.85-3.38,5.12-4.5a18.63,18.63,0,0,1,4.9-9.29c1.76-1.71,2.34-3.13,2.13-5.21-.61-6.1,1.93-11.44,4-15.71l.43-.92c1.08-2.29,1.17-4.81,1.28-7.73.06-1.65.13-3.28.34-4.87.25-1.8-1.57-5.11-3-7.77L424.49,248c-3.69-7.15-.17-11.52,3.44-13.93,1.58-1.05,2.63-2.64,2.52-3.77a29.28,29.28,0,0,1,.18-6.15,15.64,15.64,0,0,0-.1-6l-.41-1.29c-1-3-2.76-8.09.46-13,.37-.57.8-1.21-1.19-4.33-1.23-1.52-3.91-4.79-1.69-8.91,1.61-3,.7-5.49-1.21-10a29.62,29.62,0,0,1-2.71-9.26,22.29,22.29,0,0,1,0-3.15,8.57,8.57,0,0,0-.11-2.93,32.41,32.41,0,0,1-3.58-6.84c-1.08-2.56-2-4.78-3.67-6.23a8.59,8.59,0,0,1-3.18-6.63c-.08-9.24-3.93-17.58-8-26.41l-.53-1.14a12.23,12.23,0,0,0-1.12-1.86l-1.25-1.78.6-2.09a6.82,6.82,0,0,1,3.12-4.26c-.86-4.39-2.27-6.6-4.95-8-3.47-1.81-3.76-5.5-3.89-7.07-.32-4-2.86-7.46-8.26-11.14l-.86-.58c-3-2-6.42-4.33-8.41-8.58-2.94-1.2-5.19-2.17-7.43-3.14l-2.92-1.25c-.07-.14-.61.22-1,.46s-.88.56-1.42.85l.41,3.44-4.47-2.67h0l-1.85-.29-2.26-1.62c-.62-.83-2-2.66-1.78-4.68-1.06-4.56-5-7.68-9.13-11a40.3,40.3,0,0,0-4-2.65,40.78,40.78,0,0,1-6.25-4.39l-1.21-1.13c-1.26-1.19-3-2.82-4.1-3.08a41.86,41.86,0,0,1-15.87-7.26c-1.63-1.2-4.57-1.49-5.4-1.12-4.21,5.86-8.52,3.93-11.35,2a9.09,9.09,0,0,0-1.17-.75c-1.2-.59-2.39-1.29-3.59-2-4.27-2.52-6.66-3.76-9.82-2.33a5.78,5.78,0,0,1-7.7-2.28c-3.36-2.71-2.8-6.48-2.58-7.95a.53.53,0,0,1,.09-.25C270,14.92,263.32,14,256.31,13c-2.76-.39-5.51-.77-8.16-1.36a41.55,41.55,0,0,0-6.77-.68c-3.72-.18-7.94-.38-12-1.88-2.89.58-5,2-7.32,3.52-3,2-6.31,4.18-10.57,4.84a7.83,7.83,0,0,1-3.28,4.36c-3.11,1.86-6.48.6-8.08,0l-6.72-2.55,1.94-1.88c-4.48-1.46-8.95-2.94-13.38-4.54a6.94,6.94,0,0,0-4.34-.23c-3.32,4.62-8.63,5.13-12.5,5.5-3.32.31-4.89.58-5.88,1.84-2,2.55-4.93,1.75-6.41,1.26a7.66,7.66,0,0,1-8.39,2.35c-.52.39-.84.62-1.18.83-4.64,2.88-6.53,7.29-8.21,13.94l-.54,2.11-2,.91c-6.12,2.85-9.77,4.1-12.78,3A7.82,7.82,0,0,1,119,44c-4.38.12-8.57,1.83-13,3.64a55.38,55.38,0,0,1-12.64,4c-1.55.24-2.47,1.3-4.35,3.86s-4.42,6-9,7.48c-2.21.69-4.55,3.22-6.82,5.66-1,1.09-2,2.18-3,3.17a7.32,7.32,0,0,0-2.41,5c-.5,8.73-1.43,11.6-8.5,15.85-.79,1.66-2.45,4.62-6.52,4.63-6.27,0-9.61,3.63-14.54,9.55-1.17,1.41-2.34,2.81-3.58,4.14-.79,4.53-2.68,11.3-7.41,14.77-2.87,2.1-3.26,4.93-3.67,9.38-.12,1.33-.24,2.61-.46,3.8a22.62,22.62,0,0,0,3.21,15.54,7.44,7.44,0,0,1,.11,8.42c-.12.84-.27,2.12-.43,3.68l-.14,1.22-.72,1a25.94,25.94,0,0,1-4.53,5.19c-2.83,2.24-7.32,7.05-5.58,14a20.74,20.74,0,0,1-.12,8.48c-.14.87-.28,1.75-.36,2.6a12.78,12.78,0,0,1-2.49,6.07c-.19.28-.43.66-.61,1,2.27,4.88,1.24,9.41.06,12.84a3.49,3.49,0,0,0,.57,3.85,15.81,15.81,0,0,1,2.14,4.33,9.11,9.11,0,0,0,.9,2l4.38.73-.66,4.34a53.66,53.66,0,0,1-1,5.88,1.44,1.44,0,0,1,.27.42c.74,1.48,2,4,1,6.75a7.16,7.16,0,0,1-4.12,4.1c-3.64,1.59-4.24,4.16-5.15,9.37l-.36,2c-.56,2.92.14,6.08.88,9.42a42.07,42.07,0,0,1,1.3,8.95l1.66,2.6c2.5,3.93,5.33,8.38,5.45,14,.05,2,.79,3.11,3.19,4.56,1,.61,2,1.13,3.06,1.64,3.64,1.82,8.17,4.1,11,9.72a25,25,0,0,1,1.21,3c.55,1.57,1,2.92,2,3.69s3.8,3.1,3.61,6.69-3,5.31-4.66,6.4h0c.15.77.27,1.54.39,2.33.52,3.56.82,4.46,2.52,5.15A10,10,0,0,1,45.87,346c1.91,4.5,3.3,7.82,6.31,10.26,2.31,1.88,5.12,4.15,6.4,7,1.64,3.64,4.83,6.21,8.2,8.92l2.57,2.11a9.73,9.73,0,0,0,4.09,2.31c5.66-3,12.24-1.07,16.5-2.32l.68-.35c2.18-1,4.61-.76,14,3.12l1.43.59.77,1.33c1.43,2.38,2.92,4.84,2.55,8.24l-.3,2.06a10.18,10.18,0,0,1,1.91,4.49c4,9.08,10.62,14.69,21.54,18.71l1.83-4.18,5.5,5.89a8,8,0,0,0,1,1l1.49.36.88,1.15c1.81,2.21,2.75,2.23,3.61,2a6.66,6.66,0,0,1,4.08-.7l.59-1.49,3.47.38a21.43,21.43,0,0,0,8.83-.69l1.33-.4,1.32.4a2.93,2.93,0,0,1,.81-.28,13.68,13.68,0,0,1,2.62-.53l3.8-2.78,3.39,3.5A27,27,0,0,1,182.24,429.66Zm0,1.8h0Zm222.43-90.89h0Zm9.6-26.92v0ZM11.49,282.24h0ZM406.35,109.6s0,.07,0,.1A.44.44,0,0,0,406.35,109.6ZM202.73,14.72Z"/><path class="cls-2" d="M384.82,333.44c-2.61,4.18-.65,8.9-1.57,13.33-.63,3-.93,5.3-3.88,7.51-4.08,3.07-6.72,8.41-10.26,11.59-7.33,6.59-12.22,16.87-23.48,18.44-3.38.47-5-3.57-8.41-3.65-1.09,0-2.11-1.21-3.25-1.46-1.91-.42-4.08-2.21-5.77-.18-1.33,1.6-1.8,3.31-.95,6,1.32,4.21-3.44,6.08-5.88,8.48-1.8,1.78-3.55,2.22-3.2,5.75.31,3.1-3.19,6.15-6.06,7.67-3.26,1.72-6.94,2.59-10,5-3.27,2.65-7,4.51-11.44,3.83-3-.45-4.56,2.53-7.58,3.07-2.84.5-5.69,2.24-9.18,2.63-5.55.62-7.86.56-12.09-2.42-2.07-1.45-5-1.12-7.43-2.73-3.24-2.17-4,2.48-6.2,3.25-5,1.77-6.94,7.3-11.51,9a29.36,29.36,0,0,1-11.52,2.09c-5.46-.36-10.59-1.07-16.26-.09-5.12.88-10.76-1.81-16.21-2.09-4.23-.21-7.35-2.48-10.89-4-.93-.4-2-.7-2-2.06.11-6.61-3.41-11.61-7.34-16.41-2-1.85-72.43-38.12-73.72-34.42-5.25,2.1-11.06-.24-16.45,2.45-2.54,1.26-6.5-1.54-8.14-2.94-4.09-3.51-8.93-6.64-11.36-12.09-.84-1.87-3.2-3.74-4.87-5.1-3.87-3.18-5.45-7.26-7.23-11.49a5.13,5.13,0,0,0-2.33-2.67c-5.52-2.25-4.48-7.57-5.74-11.8a1.87,1.87,0,0,1,.24-1.48c1.71-2.13,7.34-3.21,2.62-7.09-2.64-2.17-3-5.48-4.13-7.79-2.75-5.45-7.53-6.52-11.76-9.11-2.87-1.75-5-3.89-5.11-8-.1-5-3.3-9.05-5.81-13.22-.35-.58-1-1.19-.95-1.77.28-6.56-3.24-12.73-2-19.36,1-5.49,1.28-11.22,7.75-14.08,3.92-1.73-.31-4.76,0-7.22,1.56-1.24,7.37-68.65,8.45-74.94.73-1.33,1.63-2.36.44-4.18a26.23,26.23,0,0,1-3.69-18c.83-4.74,0-11.2,5.62-15.37,3-2.22,4.65-7.11,5.35-11.48a2.89,2.89,0,0,1,.45-1.45c6.08-6.32,10.35-15.15,21-15.16,2.35,0,1.95-2.62,3.4-3.47,5.85-3.44,6.12-4.61,6.54-12a11.34,11.34,0,0,1,3.61-7.67c3.53-3.43,6.75-8.1,11.07-9.46,6.35-2,6.84-10,13.36-11,9.15-1.41,16.91-7.88,26.61-7.33,2.29,5.4,34.77-20.51,69.7-22.82a41.34,41.34,0,0,1,5.47,1.24c3.21,1.19,6.5,3.2,7.19-2.55,0-.41.68-1.07,1-1.06,7.32.2,11.57-6.62,18.21-8a5.23,5.23,0,0,1,3,0c5.64,2.09,11.88,1.08,17.29,2.29,9.43,2.12,20.17,1.3,28,9.16,2.33,2.33-1.11,5.33,1.94,7.38.78.52.65,2.18,2.48,1.35,6.53-3,11.36,1.68,16.43,4.21,2.77,1.39,3.77,4,6.94-.26,1.71-2.32,7.61-1.73,10.71.59a35.54,35.54,0,0,0,13.49,6.2c2.68.63,5,3.29,6.95,5,3,2.69,6.48,4.16,9.38,6.48,4.68,3.76,9.75,7.78,10.57,14.57-3.13-1.87,38.15,45.44,37.68,42.85,3.64.86,5.94,4.25,7.06,6.7,4.08,8.92,8.42,18,8.5,28.15a3.92,3.92,0,0,0,1.52,3.1c4,3.51,4.52,9.06,7.55,13.21,1.67,2.31.69,5.59.88,8.07.54,7.08,7.3,13.21,3.22,20.84-.95,1.78.65,2.87,1.44,4.11,1.78,2.81,3.12,5.77,1.1,8.89-2.28,3.52-.23,7.5.5,10.09,1.24,4.41-.35,8.27.06,12.35.3,2.94-1.6,5.88-4.29,7.68-3.07,2.07-3.57,4.31-1.82,7.71,2,4,5.09,8.49,4.57,12.35-.58,4.32.16,8.91-1.91,13.33-1.95,4.16-4.28,8.64-3.79,13.61a9.88,9.88,0,0,1-3.31,8.57,13.35,13.35,0,0,0-3.46,6.8c-.73,3-4.59,5.41-7.51,7.49-1.23.88-2.49,1.82-2.42,2.94.28,4.82-4.14,7.13-5.68,11.06-1.3,3.34-5.7,3.76-9.46,3m-7.56-172.89.84.73a44.46,44.46,0,0,0,2.55,4.52,1.61,1.61,0,0,0,2.65.1c4.18-4.43,2.34-11.46-3.69-12.25-3.24-.43-2.18-2.64-3.11-4.53l-6.11,9.34C374.55,147.13,374.69,151.72,377.39,151.16Z"/><path class="cls-1" d="M206.77,433.05a35.41,35.41,0,0,1-7.84-1.19,37.86,37.86,0,0,0-6.32-1.08c-3.58-.18-6.35-1.57-9-2.92-.87-.44-1.75-.88-2.65-1.27-1.17-.49-3.38-1.42-3.34-4.2.1-5.95-3.17-10.46-6.83-14.92-4.53-3.29-63.44-32.78-70.92-33.82l-.19.08c-5.73,2.28-11.51,0-16.27,2.36-4,2-9.16-2-10.64-3.25-.75-.65-1.53-1.28-2.32-1.91-3.48-2.84-7.44-6.05-9.64-11-.58-1.29-2.64-3-4-4.08-4.34-3.58-6.13-7.82-7.85-11.92l-.27-.64a3.39,3.39,0,0,0-1.11-1.46c-5.27-2.14-5.92-6.56-6.44-10.12a22.36,22.36,0,0,0-.61-3.12,4.13,4.13,0,0,1,.66-3.58,10.49,10.49,0,0,1,2.5-2.05A12.33,12.33,0,0,0,45,322c-.13-.08-.4-.4-.94-.84-2.34-1.92-3.21-4.45-3.92-6.48a16.84,16.84,0,0,0-.8-2.05c-1.72-3.41-4.41-4.78-7.53-6.35-1.13-.57-2.27-1.15-3.38-1.82-2.83-1.73-6.08-4.42-6.2-9.91-.08-3.5-2.06-6.65-4.17-10l-1.32-2.13a4.86,4.86,0,0,1-1.26-3.06,31.82,31.82,0,0,0-1.07-8c-.82-3.71-1.67-7.56-.88-11.71l.33-1.81c.88-5.11,1.87-10.89,8.73-13.92.3-.17,0-.86-.27-1.32a7.23,7.23,0,0,1-1.06-4.11l.38-1.12c1.07-4.24,3.71-31.08,5.47-49,1.24-12.58,2.22-22.51,2.62-24.87l.54-1.22a4.12,4.12,0,0,0,.45-.9,28.94,28.94,0,0,1-4.23-20.1c.17-1,.25-2,.35-3.09.4-4.39.9-9.85,6.15-13.73,2-1.5,3.7-5.24,4.46-10a4.53,4.53,0,0,1,1.07-2.68c1.29-1.35,2.51-2.82,3.73-4.3,4.47-5.41,9.52-11.54,18.86-11.55a1.9,1.9,0,0,1,.19-.54,5.36,5.36,0,0,1,2.08-2.62c5-2.94,5-3.35,5.42-10.17a13.53,13.53,0,0,1,4.28-9.17c.9-.87,1.77-1.82,2.65-2.77,2.74-3,5.56-6,9.33-7.24,2.32-.73,3.68-2.59,5.24-4.74C92.28,56,94.47,53,98.8,52.34a46.5,46.5,0,0,0,10.49-3.41c5.13-2.11,10.48-4.3,16.6-4l1.42.08.27.64c2-.28,7.57-3,12.51-5.46,13.43-6.63,33.74-16.65,55.22-18.07l.32,0,1.94.39a25.13,25.13,0,0,1,4.15,1l1.07.41c.81.33,2.17.92,2.6.77a5.45,5.45,0,0,0,.47-1.87c.18-1.45,1.67-3.34,3.33-3.06,3.45.14,6.15-1.75,9.08-3.7,2.59-1.74,5.28-3.53,8.63-4.21a7.33,7.33,0,0,1,4.25.14c2.94,1.08,6.11,1.24,9.46,1.4a44.46,44.46,0,0,1,7.54.8c2.35.52,4.78.86,7.22,1.2,7.63,1.07,15.52,2.17,21.88,8.57a5.88,5.88,0,0,1,1.37,5.51c-.2,1.3-.16,1.32.22,1.58a3.71,3.71,0,0,1,.91.9c6-2.34,10.84.52,14.75,2.84,1,.59,2,1.18,3,1.68a15.15,15.15,0,0,1,2,1.23,8.43,8.43,0,0,0,.93.61c0-.08.43-.39,1.19-1.41a6.26,6.26,0,0,1,4.25-2.29A13.92,13.92,0,0,1,315.5,37a33.06,33.06,0,0,0,12.64,5.82c2.8.66,5.09,2.84,6.93,4.6l1,1A32.22,32.22,0,0,0,341,51.88a42.47,42.47,0,0,1,4.35,2.94c4.95,4,10.44,8.37,11.39,16,3.76,5.4,31.66,37.15,36.05,41,5,1.23,7.6,6,8.51,8l.52,1.12c4,8.7,8.11,17.7,8.19,28a1.68,1.68,0,0,0,.74,1.4c2.75,2.4,4,5.45,5.25,8.4a25.42,25.42,0,0,0,2.64,5.18c1.65,2.28,1.49,5,1.36,7.14a18.84,18.84,0,0,0,0,2.1,23.32,23.32,0,0,0,2.09,6.8c1.86,4.46,4,9.5.87,15.3a7.24,7.24,0,0,0,.56.75,9.39,9.39,0,0,1,.79,1.06c1.26,2,4.19,6.59,1.09,11.35-1.2,1.85-.63,3.94.29,6.69.19.55.37,1.07.5,1.54a20.86,20.86,0,0,1,.3,8.22,22.41,22.41,0,0,0-.17,4.52c.37,3.61-1.66,7.36-5.28,9.81-1.93,1.3-2.38,2.21-1.07,4.76.36.71.76,1.43,1.16,2.17,1.95,3.58,4.17,7.64,3.64,11.53-.17,1.31-.22,2.65-.27,4-.11,3.08-.23,6.56-1.84,10l-.42.9c-1.75,3.7-3.55,7.53-3.16,11.52a12,12,0,0,1-4,10.42,11.09,11.09,0,0,0-2.84,5.72c-.85,3.48-4.36,5.95-7.46,8.13l-.93.66a8.13,8.13,0,0,0-1.53,1.3c.28,3.5-1.73,6-3.5,8.23a14.13,14.13,0,0,0-2.27,3.45c-1.53,3.94-6.16,5.6-12.05,4.39l.92-4.47c2.9.62,6.14.35,6.88-1.58a17.82,17.82,0,0,1,3-4.64c1.66-2.09,2.68-3.46,2.56-5.46-.14-2.4,2-3.92,3.38-4.92l1-.69c2.32-1.63,5.21-3.66,5.65-5.49.88-3.59,2.1-5.95,4.08-7.9a7.62,7.62,0,0,0,2.65-6.71c-.53-5.24,1.64-9.84,3.56-13.9l.42-.89c1.21-2.59,1.31-5.33,1.41-8.22.06-1.51.11-3,.31-4.46.33-2.42-1.51-5.77-3.13-8.73-.42-.77-.83-1.53-1.21-2.27-2.29-4.45-1.44-7.93,2.58-10.64,2.19-1.47,3.48-3.66,3.29-5.55a26,26,0,0,1,.18-5.47,16.91,16.91,0,0,0-.16-6.5c-.12-.4-.27-.84-.43-1.32-.91-2.7-2.29-6.79.21-10.64,1.11-1.69.81-3.37-1.12-6.41a4.94,4.94,0,0,0-.49-.64c-.8-1-2.47-3.07-1-5.77,2.08-3.89.62-7.36-1.06-11.39a26.36,26.36,0,0,1-2.42-8.21,19.22,19.22,0,0,1,0-2.72c.1-1.66.19-3.23-.5-4.18a29.18,29.18,0,0,1-3.16-6.12c-1.08-2.58-2.09-5-4-6.72a6.17,6.17,0,0,1-2.3-4.79c-.07-9.28-4-17.83-7.78-26.1l-.52-1.13c-.63-1.39-2.44-4.7-5.51-5.42l.07-.29c-7.65-3.94-38.55-42.32-38.85-42.75a3.38,3.38,0,0,1-.77-2.62c-1-5.32-5.32-8.77-9.49-12.11a37.23,37.23,0,0,0-4-2.69,36.08,36.08,0,0,1-5.61-4l-1.11-1c-1.51-1.45-3.23-3.08-4.83-3.46a37.64,37.64,0,0,1-14.32-6.59,9.57,9.57,0,0,0-6.25-1.54,2.15,2.15,0,0,0-1.26.47c-3.48,4.72-6.19,3.42-8.42,1.83a10.08,10.08,0,0,0-1.39-.88c-1.09-.55-2.18-1.19-3.28-1.84-3.8-2.25-7.09-4.2-11.17-2.33a3.47,3.47,0,0,1-4.87-1.61c-2.64-1.81-2.24-4.52-2-6,.18-1.21.13-1.39-.09-1.62-5.29-5.31-12.08-6.26-19.28-7.27-2.57-.36-5.12-.71-7.59-1.27a39.33,39.33,0,0,0-6.76-.69c-3.55-.18-7.22-.35-10.83-1.69a3.24,3.24,0,0,0-1.76.07c-2.47.49-4.67,2-7,3.52-3,2-6.29,4.21-10.55,4.46a6,6,0,0,1-2.57,4.33c-2.15,1.27-4.5.35-6.57-.48l-1-.37a19.93,19.93,0,0,0-3.39-.8l-1.45-.28c-20.46,1.44-40.15,11.15-53.2,17.59C132.4,49.12,128.34,51,125.63,50a3.81,3.81,0,0,1-.93-.51c-4.8.19-9.09,1.75-13.67,3.64a50.78,50.78,0,0,1-11.53,3.7c-2.34.36-3.6,1.95-5.47,4.51s-3.8,5.22-7.56,6.41c-2.6.83-4.91,3.33-7.34,6-.94,1-1.88,2-2.83,3a9.18,9.18,0,0,0-2.91,6.16c-.45,8.08-1.12,10-7.67,13.85a2.82,2.82,0,0,1-.21.56,4.59,4.59,0,0,1-4.34,3.22c-7.2,0-11,4.59-15.36,9.89-1.3,1.57-2.59,3.13-4,4.57-.41,3.76-2,10.13-6.1,13.18-3.6,2.66-4,6.46-4.31,10.47-.11,1.21-.22,2.38-.41,3.47a24,24,0,0,0,3.35,16.39c1.82,2.78.61,4.87-.12,6.12-.36,1.88-1.37,12.24-2.56,24.24-3.76,38.29-4.91,47.7-5.83,50.46a8.87,8.87,0,0,0,.59,1.34c.66,1.33,1.48,3,.82,4.81a4.81,4.81,0,0,1-2.79,2.71c-4.62,2-5.27,5.78-6.09,10.52l-.33,1.9c-.62,3.23.09,6.46.84,9.87a35.38,35.38,0,0,1,1.17,9.16.9.9,0,0,1,.62.49L22,282.13c2.35,3.71,4.77,7.54,4.87,12.3.07,3.09,1.59,4.64,4,6.12,1,.61,2,1.13,3.06,1.64,3.35,1.7,7.15,3.61,9.55,8.38a23.09,23.09,0,0,1,1,2.6c.6,1.72,1.16,3.35,2.51,4.45.69.57,2.79,2.31,2.67,4.69s-2.07,3.54-3.49,4.49a12,12,0,0,0-1.21.85,29.05,29.05,0,0,1,.65,3.44c.51,3.44.93,5.44,3.67,6.55a7.38,7.38,0,0,1,3.57,3.91l.28.65c1.64,3.91,3.07,7.3,6.3,9.95,2,1.65,4.48,3.66,5.5,5.94,1.76,3.93,5,6.54,8.36,9.29.82.67,1.63,1.32,2.41,2,2.4,2.06,4.84,3,5.63,2.63,5.64-2.8,11.23-1,15.68-2.2l0-.12,1.51-.53c6.91-2,75.07,34.78,75.52,35.2,4.2,5.1,8.1,10.48,8.07,17.85a.72.72,0,0,1,.3.07c1.27.55,2.22,1,3.17,1.5,2.36,1.19,4.58,2.31,7.21,2.44a40.8,40.8,0,0,1,7.1,1.19c3.1.71,6,1.37,8.61.94,4.92-.87,9.48-.49,13.89-.16l2.91.22a27,27,0,0,0,10.57-2c1.71-.64,3.11-2.16,4.59-3.76,1.81-2,3.87-4.18,7-5.28a6.79,6.79,0,0,0,1-1.1c.94-1.22,3.4-4.51,7.28-1.9a9.83,9.83,0,0,0,3.17,1.12,11.9,11.9,0,0,1,4.3,1.64c3.55,2.5,5.17,2.61,10.53,2a20.81,20.81,0,0,0,4.85-1.36,24.61,24.61,0,0,1,4.18-1.26,7,7,0,0,0,2.51-1.26c1.45-1,3.29-2.22,5.82-1.81,3.22.51,6.19-.55,9.66-3.35a26.8,26.8,0,0,1,6.92-3.75c1.16-.48,2.3-.95,3.41-1.54,2.52-1.32,5-3.71,4.85-5.43a6.72,6.72,0,0,1,2.89-6.71c.31-.26.65-.54,1-.87a21.25,21.25,0,0,1,2.35-1.93c2.64-2,3.39-2.84,2.95-4.24-1-3.21-.57-5.8,1.37-8.14,2.31-2.75,5.26-1.61,6.84-1a7.55,7.55,0,0,0,1.18.41,7.21,7.21,0,0,1,2.21,1,6.93,6.93,0,0,0,.72.41c2.23,0,3.89,1.32,5.23,2.34s2,1.53,2.69,1.31c7.16-1,11.51-6,16.13-11.34a70.22,70.22,0,0,1,6.15-6.54,33.88,33.88,0,0,0,4.09-4.81,33.69,33.69,0,0,1,6.33-6.9c2.06-1.56,2.35-3,2.88-5.58l.12-.57a18.86,18.86,0,0,0,.16-4.67c-.12-2.93-.26-6.25,1.71-9.41l3.87,2.41c-1.22,2-1.12,4.21-1,6.8a23.18,23.18,0,0,1-.25,5.79c-.71,3.51-1.28,6.29-4.74,8.88a29.8,29.8,0,0,0-5.42,6,38.48,38.48,0,0,1-4.68,5.44,69.59,69.59,0,0,0-5.76,6.13c-4.95,5.72-10.08,11.64-18.94,12.89-2.69.32-4.59-1.06-6.1-2.22a5.26,5.26,0,0,0-2.68-1.42,5.62,5.62,0,0,1-2.9-1.08,4.67,4.67,0,0,0-.79-.43,13.86,13.86,0,0,1-1.85-.62,6.73,6.73,0,0,0-1.55-.45c-.93,1.1-1.26,2-.65,4,1.48,4.71-2.15,7.44-4.55,9.25a22.4,22.4,0,0,0-1.89,1.54c-.43.43-.86.79-1.26,1.13-1.18,1-1.43,1.19-1.27,2.77.41,4.28-3.66,8-7.28,9.92-1.22.64-2.49,1.17-3.77,1.71a23,23,0,0,0-5.81,3.07c-2.83,2.29-7.25,5.23-13.22,4.32-.73-.07-1.32.22-2.58,1.08a11.07,11.07,0,0,1-4.27,2,21.51,21.51,0,0,0-3.39,1.05,24.72,24.72,0,0,1-5.93,1.61c-5.9.67-8.79.6-13.65-2.83a8.16,8.16,0,0,0-2.71-.92,13.37,13.37,0,0,1-4.67-1.78c-.39-.17-.85.52-1.13.89a7,7,0,0,1-3,2.62c-2,.72-3.54,2.36-5.14,4.09-1.77,1.91-3.6,3.89-6.33,4.92-2.56,1-7.57,2.59-12.46,2.22l-3-.21c-4.33-.34-8.4-.65-12.77.1A14.63,14.63,0,0,1,206.77,433.05ZM210.39,23.4h0Zm171.72,136h-.25a4,4,0,0,1-2.94-1.71,27.19,27.19,0,0,1-2-3.4l-.46-.87a5.5,5.5,0,0,1-3.26-1.88c-.86-.87-.86-.86-1.71-.45l-7.37,3.55,12.77-19.56,1.76,3.6a8.11,8.11,0,0,1,.69,2.42,5.54,5.54,0,0,0,.15.77l.52.09a8.85,8.85,0,0,1,7.4,5.85,10,10,0,0,1-2.34,10.23A4.09,4.09,0,0,1,382.11,159.44Zm-3.9-10.72,2,2.06.77,1.45c.39.75.77,1.5,1.21,2.21a5.38,5.38,0,0,0,.93-5.07,4.28,4.28,0,0,0-3.69-2.85,5.07,5.07,0,0,1-3.43-1.68l-1.35,2.08a8,8,0,0,1,1.8,1.45,5.92,5.92,0,0,0,.64.59Z"/><path class="cls-3" d="M393.75,333.18c-1.41-.17-2.58.46-2.75,1.77-.67,5.28-5,7.09-8.81,9.12-2.76,1.46-4.27,3.66-6,6.11-1.34,1.94-1.71,4.28-4,6-5.68,4.41-10.65.54-15.75-.46-2.41-.47-3-1-3.38,1.93-.62,4.49-2.39,5-6.6,2.61-3-1.69-6.56-.73-9.85-1.79-2.14-.69-1.46,2.89-2.62,4.28-1.61-.81-3.07-2.45-5.11-.83a5.34,5.34,0,0,1-6.59-.11c-2.07-1.82-1.49-5.15-1.08-7.77.23-1.42,2.15-2.22,2-4.38-.13-2,2-1.06,2.57-.44,1.57,1.67,3.53.62,5.06,1.13,4,1.36,4.32-2.37,3.85-3.52-1.33-3.21.22-6.7-1.93-9.88-3.15-4.66-2.3-5.47,2.39-7.89,2.92-1.51,5.56-3.7,8.59-5.14.93-.44.47-.61.07-1.3-1.76-3.07-3.7-6.32,1-8.77.92-.48,1-1.25.45-2.16-1.07-2-.33-5.12-.74-5.85-2.06-3.6-.7-9-5.4-11.09-.65-.3-1.47-.52-1.33-1.28.67-3.82-2.35-6.35-3.32-9.6a4.75,4.75,0,0,1,.88-5.07c1.6-1.91,5.26-2.15,4.74-6-.06-.46,2.1-1,3.39.43s3.58,1.59,4.2-.53c1.59-5.47,5-2,6.45-.88,2,1.63,5,3,5,6.48a1.83,1.83,0,0,0,1.57,1.8c4,.84,2.17,2.42.5,4-.38.35-1.15.79-1.1,1,1,4.49,1.55,9.28,3.6,13.27.75,1.45,4.25-1.26,5.14-3.25,1.32-2.93,1.86-6.12,4.88-1.2a1.49,1.49,0,0,0,2.27.29c.78-.5,1.52-1.59,1-2.14-2.47-2.44.15-5-.43-7.37-.79-3.13,1-4,3.25-3.43,4.79,1.22,6.23-1.09,5.95-6.08,2.25,2.12,3.76,3.63,5.37,5,1.33,1.17,3.67,1.64,2.47,4.3a6.47,6.47,0,0,1-5.41,4c-1.26.17-2.95-1-3.7.75-.85,1.94,1.78,1.88,2.09,2.94,1.15,4,4.23,6.13,7,8.8,6.25,6,2.34,13.12,1.14,19.81-.17.93-1.07,1.75-.81,2.87C393,326.91,396.79,330.1,393.75,333.18Z"/><path class="cls-1" d="M334.65,365.64l-1.62-.81a12.39,12.39,0,0,1-1.16-.67,4.62,4.62,0,0,0-1.19-.61h0a7.8,7.8,0,0,1-9.82,0c-3-2.61-2.3-6.85-1.86-9.65a5.75,5.75,0,0,1,1.37-2.83c.53-.68.66-.89.64-1.25a3.19,3.19,0,0,1,1.83-3.36,4.51,4.51,0,0,1,4.67,1.21c.27.27.49.32,1.54.27a7.35,7.35,0,0,1,2.59.26,1.79,1.79,0,0,0,1,.17,3.2,3.2,0,0,0,0-.7,13.64,13.64,0,0,1-.79-5.1c0-1.73-.07-3.09-.9-4.31-1.69-2.51-2.63-4.46-2.13-6.44.59-2.31,2.91-3.5,5.37-4.77,1.28-.66,2.5-1.47,3.73-2.27,1.08-.71,2.19-1.43,3.37-2.1-1.13-2.05-2.08-4.24-1.4-6.59a6.78,6.78,0,0,1,3.17-3.81,11.75,11.75,0,0,1-.64-4.75,6.25,6.25,0,0,0,0-1A14.4,14.4,0,0,1,341,302c-.53-2.7-.91-4.28-2.76-5.12-2.12-.9-2.93-2.13-2.64-3.74s-.39-2.84-1.49-4.78a18.16,18.16,0,0,1-1.77-3.77,7,7,0,0,1,1.32-7.19,9.7,9.7,0,0,1,2.56-2c1.63-1,1.8-1.21,1.67-2.19l-.23-1.67,1.84-1a5.11,5.11,0,0,1,5.74,1.31.91.91,0,0,0,.52.31c.51-2.43,1.74-3.94,3.44-4.45,2.63-.79,4.93,1.19,6.16,2.25.63.51,1,.79,1.39,1.08,1.89,1.37,4.74,3.44,4.7,7.4a3.65,3.65,0,0,1,3.86,2.46c.58,2.09-1.07,3.63-2.4,4.86l-.26.24.45,2.24a41.56,41.56,0,0,0,2.07,7.91,5.89,5.89,0,0,0,1.63-1.83l.46-1.09c.74-1.79,1.57-3.82,3.72-4a3.6,3.6,0,0,1,2.68,1,9.38,9.38,0,0,1,.42-3.19,4.48,4.48,0,0,0,.26-1.67c-.69-2.77.16-4.35,1-5.18a5.08,5.08,0,0,1,5-1c1.47.36,2.27.27,2.54.05s.74-.76.57-3.79l-.31-5.71,6.15,5.82c1.23,1.18,2.25,2.16,3.31,3.09a6.86,6.86,0,0,0,.76.53c1.1.7,4,2.58,2.3,6.41a8.74,8.74,0,0,1-7.19,5.34h-.08a3.16,3.16,0,0,1,.35.79c.76,2.62,2.64,4.33,4.81,6.32.53.48,1.06,1,1.59,1.48,5.9,5.7,4.15,12.4,2.74,17.78-.35,1.37-.71,2.72-.95,4.06a6,6,0,0,1-.6,1.65l.13.58-.4.88a5.17,5.17,0,0,0,.45,2.5c.64,2,1.62,5-1.14,7.85l-.79.81-1.12-.14a.62.62,0,0,0-.39,0c-.59,5.84-5.23,8.24-9,10.17l-.86.45c-2.24,1.18-3.5,3-5.1,5.3a13.1,13.1,0,0,0-1.05,1.91,12,12,0,0,1-3.46,4.72c-5.21,4.06-10.09,2.38-14,1a28.67,28.67,0,0,0-3.59-1.06l-.66-.14a.59.59,0,0,0,0,.14c-.26,1.85-.85,4.44-3,5.51s-4.76,0-7-1.23a10.32,10.32,0,0,0-4.53-.87,21.91,21.91,0,0,1-3.8-.43v.08a7.23,7.23,0,0,1-1.26,3.19Zm-9.39-13.93a7.67,7.67,0,0,1-1.32,2.22,5.16,5.16,0,0,0-.44.59c-.32,2.14-.72,4.66.36,5.62a3.08,3.08,0,0,0,3.66,0,4.77,4.77,0,0,1,5.22-.72,4.2,4.2,0,0,1,1.83-2.88,3.35,3.35,0,0,1,2.81-.23,14.65,14.65,0,0,0,3.75.51,14.47,14.47,0,0,1,6.51,1.45c1.89,1.06,2.54,1.12,2.75,1.11a10.92,10.92,0,0,0,.47-2c.19-1.4.48-2.86,1.7-3.7a4.33,4.33,0,0,1,3.63-.31l.75.16a31.89,31.89,0,0,1,4.18,1.23c4,1.35,6.62,2.09,9.73-.33a7.7,7.7,0,0,0,2.14-3.1,18.7,18.7,0,0,1,1.35-2.43c1.79-2.57,3.56-5.13,6.79-6.83l.89-.47c3.87-2,6.27-3.41,6.72-6.93a4.27,4.27,0,0,1,3.85-3.74c.2-.54,0-1.22-.41-2.59a9.1,9.1,0,0,1-.61-4.66,5.2,5.2,0,0,1,.68-2.73c.46-1.89.84-3.36,1.23-4.84,1.54-5.89,2.29-9.68-1.5-13.34-.5-.48-1-.94-1.5-1.39-2.34-2.14-4.76-4.35-5.94-7.89-2.93-1.69-2.77-3.64-2.16-5,1.24-2.81,4-2.34,4.91-2.17a4.46,4.46,0,0,0,.61.08,4.16,4.16,0,0,0,3.6-2.67c.11-.26-.31-.53-.59-.71a10.54,10.54,0,0,1-1.3-.94c-.69-.6-1.37-1.22-2.09-1.91a5.68,5.68,0,0,1-1.74,2.6c-1.57,1.29-3.7,1.56-6.55.84a2.66,2.66,0,0,0-.64-.09c0,.12.06.37.16.76a7.69,7.69,0,0,1-.28,3.94c-.42,1.57-.41,1.86.1,2.36a3,3,0,0,1,.86,2.43,4.73,4.73,0,0,1-2.18,3.24,4.12,4.12,0,0,1-3.19.66,3.6,3.6,0,0,1-2.27-1.68q-.14-.22-.27-.42l-.06.14-.52,1.23c-.89,2-3.83,4.94-6.4,5a3.5,3.5,0,0,1-2.84-1.65,38.41,38.41,0,0,1-3.1-10.43c-.22-1.13-.44-2.26-.7-3.37a2.9,2.9,0,0,1,1.49-3l.44-.4a4.09,4.09,0,0,1-3-3.94c0-1.55-1-2.37-2.82-3.68-.47-.34-.92-.68-1.33-1a8.63,8.63,0,0,0-2.28-1.6,9.41,9.41,0,0,0-.53,1.36,4.29,4.29,0,0,1-3.19,3.14,5.08,5.08,0,0,1-4.48-1.31c-.63,2.19-2.46,3.29-3.68,4a6.44,6.44,0,0,0-1.41,1c-.75.9-.91,1.42-.45,3a13.75,13.75,0,0,0,1.35,2.81,12.24,12.24,0,0,1,2.14,6.67c4,1.87,4.71,5.46,5.27,8.35a12.21,12.21,0,0,0,1.08,3.64,5.43,5.43,0,0,1,.43,2.89,7.28,7.28,0,0,0,.33,3,4,4,0,0,1,.47,3.13,3.59,3.59,0,0,1-1.86,2.16c-.66.35-1.47.88-1.65,1.48-.26.9.69,2.56,1.53,4l.47.81.29,1.89a3,3,0,0,1-1.77,1.9,37.82,37.82,0,0,0-4.37,2.6,46.44,46.44,0,0,1-4.14,2.5,13.41,13.41,0,0,0-3.06,1.91,10.83,10.83,0,0,0,1.51,2.69c1.59,2.33,1.63,4.7,1.68,6.77a9.7,9.7,0,0,0,.47,3.51,5.64,5.64,0,0,1-1,5.56c-.77.83-2.56,2-5.71,1a3.33,3.33,0,0,0-1,0A6.47,6.47,0,0,1,325.26,351.71Zm50.1-57.93Zm-13-9.11v0Z"/><path class="cls-3" d="M107.75,371.35c1.29-3.71,3.54-7.39-1.07-10.65-2.26-1.6-1.61-3.91-.2-5.88,1.65-2.31,3.06-1.58,5,0,1.77,1.43,4.07,1.74,4.19,4.94.09,2.34,1.72,2.72,4.48,1.75,4.09-1.43,8-3.93,12.61-3.69,3.61.18,3.71-4.18,6.61-5.16,1.87,3.29-.42,4.81-2.64,6.25-1,.67-2.56,1.24-1.88,2.6s2.83,1.23,3.61.62c2.09-1.62,3.52-1.95,4.89.65.18.34,1.1.7,1.35.54,5.56-3.62,12.95-4,17.48-9.16,1.77-2,0-5.86,2.24-8.25.81-.86.67-2.84,2.88-2,2.87,1.06,4.82,4.45,8.58,3.36.24-.07,1.26,1.24,1.14,1.43-2.41,4,1.19,6.56,2.29,9.68s2.82,5-1.15,8.82c-3.11,3-4.82,6.46-9.79,7.22-2.33.36-1.78,2.44.28,4.09,1.75,1.4,6,1.3,4,6.06-.6,1.39,3.11,2.78,5.24,1.27,1.83-1.3,3.58-2.24,4.46.37.7,2.06,2.73,4.75-1,6.55-3.55,1.71-4,4.92-.81,6.56,4,2-1.06,4.59.92,6.44-3.5.9-4.59,5.33-8.64,5.68-1.59.14-3.14,1.14-4.88.61-3.66-3.17-6.91-1.49-10.12.82-1.16,3-3.77.14-5.37,1.35-1.23-5.68-5.52-2.77-8.66-3.08-1.71-.42-2.61-1.84-3.71-3-2.47-3.33-5.1-6.22-9.71-6.57-4.94-.37-8.93-2.86-10.06-7.77a22.1,22.1,0,0,0-9.58-14.11C111.09,376.42,107.93,374.42,107.75,371.35Z"/><path class="cls-1" d="M150.65,418.34l-.42-3.64c-.42-1.95-.67-2-3.32-1.53a13.78,13.78,0,0,1-3.32.25,8.27,8.27,0,0,1-4.6-3.1l-.57-.63c-2.74-3.67-4.78-5.6-8.21-5.86-6.41-.47-10.83-3.95-12.11-9.54a19.77,19.77,0,0,0-8.63-12.71l-1.14-.77.14-1.37c.1-.95-.38-1.82-1.17-3.15a10.11,10.11,0,0,1-1.83-4.81l0-.45.69-1.9c1.37-3.58,1.61-4.88-.77-6.57A5.45,5.45,0,0,1,103,359a7.3,7.3,0,0,1,1.64-5.48,5.11,5.11,0,0,1,3.47-2.39c1.92-.27,3.51.87,4.85,2a11.65,11.65,0,0,0,1.16.77c1.49.89,3.74,2.24,3.88,5.85-.29.05.13.14,1.44-.31,1.08-.38,2.13-.83,3.19-1.28,3.15-1.35,6.41-2.67,10.3-2.54.58.11.91-.2,1.89-1.62a7.77,7.77,0,0,1,3.87-3.43l1.79-.59.93,1.64c1.81,3.19.88,5.47-.58,7.06a3.79,3.79,0,0,1,1.15.08,4.74,4.74,0,0,1,2.79,2,44.8,44.8,0,0,1,6.46-2.76c3.57-1.32,6.95-2.56,9.28-5.23a5,5,0,0,0,.37-2.29c.06-1.75.14-4.13,1.93-6,1.48-3.28,3.71-3.2,5.33-2.59a13.58,13.58,0,0,1,3.28,1.93c1.67,1.21,2.53,1.76,3.87,1.39,1.7-.53,2.81,1,3.18,1.45s1.44,1.85.57,3.32-.52,2.44.87,4.68a15.63,15.63,0,0,1,1.6,3.07c.15.44.32.85.48,1.24,1,2.53,2.3,5.68-2.2,10-.72.7-1.36,1.41-2,2.12-1.93,2.16-4.1,4.59-8,5.51l.3.26a6.87,6.87,0,0,0,1.15.56c1.31.56,3.11,1.33,3.89,3.27a5.47,5.47,0,0,1,.07,3.61,1.94,1.94,0,0,0,1.36-.19c1.09-.78,3.13-2.21,5.23-1.53a4.37,4.37,0,0,1,2.71,3c.1.3.24.6.37.91.69,1.64,2.53,6-2.53,8.43-1.23.58-1.68,1.27-1.68,1.59s.28.56.91.88c4.24,2.16,2.55,5.62,2,6.76-.06.12-.13.26-.19.4l2.65,2.49-4,1a6.56,6.56,0,0,0-2.73,2.09c-1.44,1.51-3.23,3.39-6.28,3.65a7.16,7.16,0,0,0-1.26.29,7.67,7.67,0,0,1-4.49.23l-.83-.46c-2-1.71-3.62-1.6-6.81.62-1.5,2.79-4.27,2.18-5.37,1.93-.25-.06-.51-.08-.77-.14Zm3.35-6.69a9,9,0,0,1,1.27.22l.78.13.44-1c2.36-1.71,7.2-5.19,12.46-1.1a10.29,10.29,0,0,0,1.58-.31,12,12,0,0,1,2.09-.44c1.29-.12,2.09-.89,3.39-2.27a15.09,15.09,0,0,1,2.71-2.39,6.67,6.67,0,0,1,.77-2.45,5.27,5.27,0,0,0,.35-.84c-2.51-1-3.75-2.81-3.72-4.87,0-2.27,1.62-4.38,4.26-5.65,1.12-.54,1.14-.55.31-2.53-.17-.39-.33-.76-.45-1.13a11.06,11.06,0,0,0-1,.66,6.65,6.65,0,0,1-7.56-.21,3.24,3.24,0,0,1-1.09-3.83,2.7,2.7,0,0,0,.35-1.4,5.59,5.59,0,0,0-1.45-.77,8.89,8.89,0,0,1-2.21-1.2c-2.06-1.64-3-3.68-2.53-5.44a3.72,3.72,0,0,1,3.33-2.68c2.94-.45,4.36-2,6.33-4.24.7-.8,1.43-1.61,2.24-2.38,2.26-2.17,2-2.77,1.12-5-.19-.45-.38-.92-.56-1.43a11.84,11.84,0,0,0-1.17-2.19c-1.07-1.73-2.59-4.18-1.86-7.18a10,10,0,0,1-5.44-2.38,12.87,12.87,0,0,0-1.77-1.15,4.67,4.67,0,0,1-.83,1.26c-.56.61-.64,1.56-.69,3.06s-.12,3.56-1.49,5.13c-3.09,3.55-7.19,5.05-11.15,6.51a33.84,33.84,0,0,0-6.8,3.07l-.85.54-1.42-.24a3.89,3.89,0,0,1-2.34-1.67,3.69,3.69,0,0,0-.45-.71c-.06.1-.41.29-1,.77a5.17,5.17,0,0,1-4.2.79,4.14,4.14,0,0,1-2.87-2.2,3.37,3.37,0,0,1-.32-2.43c-2.65-.21-5.37,1-8.11,2.18-1.15.49-2.3,1-3.47,1.39-.89.31-3.65,1.28-5.68-.1a4.42,4.42,0,0,1-1.83-3.71c0-1.11-.33-1.32-1.67-2.12a14.85,14.85,0,0,1-1.67-1.13,7.35,7.35,0,0,0-1.38-1c0,.07-.18.21-.37.49a3.3,3.3,0,0,0-.85,2.07c0,.07.05.29.5.62,5.48,3.86,3.63,8.71,2.41,11.92l-.32.85a8.7,8.7,0,0,0,1.13,2.34,10.77,10.77,0,0,1,1.8,4.54,24.34,24.34,0,0,1,9.54,14.79c1.1,4.78,5.48,5.82,8,6,5.68.42,8.85,4.08,11.37,7.47l.52.57c.76.89,1.27,1.44,1.92,1.61.22,0,1-.14,1.8-.27C148.19,408.32,152.12,407.68,154,411.65Z"/><path class="cls-3" d="M401.14,113.75c.46,2.59-2.81,2.33-3.21,4.14-.64,2.88-4.36,6.23,1.05,8.45.46.19,1,1.45.83,1.73-2.29,3.35-4.21,7.24-7.28,9.67-2.32,1.85-6,1.28-8.59-1.37s-6.51-4-7.17-8.31a2.3,2.3,0,0,0-2.67-1.93c-5,.48-5.77-2.77-5.24-6.52.36-2.58-.31-3.89-2.81-4.5-4.23-1-5.77-5.15-8.61-7.78-1-.92-1.92-2.83-3.22-2-5,3-8.32-1.09-12.33-2.3-5-1.51-9.72-2.64-14.05,1.94a3.59,3.59,0,0,1-5.82-.61c-1.28-2.31.39-3,2.6-3.16.5,0,1.36-1.3,1.31-1.93-.12-1.45-1.57-.87-2.47-1.1-1.5-.38-1.78,1.42-2.94,1.75-.85.24-1.81.63-2.37-.17s.18-1.48.89-2c1.83-1.46,3.91-2.92.43-4.94-1.55-.91-.14-1.84.41-2.31,3.31-2.8,7.58-3.42,11.57-4.41.82-.2,3.06,2.17,3,4.44-.06,1.38-.14,2.76-.21,4.13-.64.23-1.55.56-1.23,1.28.51,1.12,1.36.61,2,0,2-.23,3.2-3,5.55-1.83,2.1,1.06,5.17,2.09,6,.2a7.23,7.23,0,0,0-1.87-7.71c-1.92-1.78-2.52-4.48-5.54-5.68-2.82-1.13-1.1-5.2-2.09-7.83-.18-.49,1.89-1.33,2.5-.34,1.11,1.83,2.84,1.54,4,1.08a23.28,23.28,0,0,1,12.69-1.11c1.74.27,4.05-3.56,7.18-1.69,3.14,1.35,6.26,2.74,9.42,4,1,.41,2,.75,2.39,1.81,1.46,3.63,4.35,5.34,7.55,7.54,4.52,3.11,9.2,7.39,9.72,13.92.09,1.21.24,2.64,1.37,3.24C398.91,104.07,400.38,108.68,401.14,113.75Z"/><path class="cls-1" d="M389.34,141.08a10,10,0,0,1-7-3.11,18.73,18.73,0,0,0-2.27-1.88c-2.2-1.65-4.94-3.71-5.53-7.68-2.88.26-4.95-.37-6.34-1.82-1.53-1.6-2-4-1.58-7.29.23-1.65,0-1.7-1.09-2-3.63-.88-5.62-3.45-7.38-5.71a21.67,21.67,0,0,0-2.24-2.61,10.94,10.94,0,0,1-1-1,3.56,3.56,0,0,0-.26-.31c-4.3,2.18-7.85.29-10.5-1.12a16.57,16.57,0,0,0-2.94-1.36c-4.93-1.49-8.4-2.2-11.74,1.33a6.21,6.21,0,0,1-5.19,1.87,5.61,5.61,0,0,1-4.27-2.94,4.91,4.91,0,0,1-.71-3,3.33,3.33,0,0,1-3.05-1.43c-.82-1.2-1.26-3.05,1.3-5.1.43-.34.86-.68,1.17-1l-.42-.27A3.31,3.31,0,0,1,316.49,92a4,4,0,0,1,1.8-3.27c3.33-2.83,7.29-3.74,10.79-4.55l1.82-.43a3.36,3.36,0,0,1,3,.88,7.63,7.63,0,0,1,2.81,5.86l-.09,1.8a4.79,4.79,0,0,1,5-.39,6.59,6.59,0,0,0,3.26,1,5.82,5.82,0,0,0-1.69-4.79,14.91,14.91,0,0,1-2.07-2.56,6.17,6.17,0,0,0-2.77-2.68c-3.21-1.29-3.19-4.51-3.17-6.64a8.48,8.48,0,0,0-.2-2.51,2.69,2.69,0,0,1,1.63-3.41,3.74,3.74,0,0,1,4.95,1.09c.18.29.3.51,1.23.13a25.39,25.39,0,0,1,13.87-1.23c-.18,0,.3-.36.62-.57,1.47-1,4.2-2.71,7.37-.83l2.49,1c2.2,1,4.41,1.92,6.64,2.83a5.7,5.7,0,0,1,3.64,3.08c1.07,2.65,3.18,4.09,5.86,5.91l.86.59c4.3,2.95,10.08,7.78,10.7,15.62a5.14,5.14,0,0,0,.26,1.48c5.95,3.11,7.55,8.76,8.32,13.88.53,3.06-1.78,4.37-2.77,4.93a4.59,4.59,0,0,0-.62.39,8.52,8.52,0,0,1-.87,2.38c-.33.7-.88,1.87-.74,2.21.05.14.43.52,1.45.94a4.3,4.3,0,0,1,2.13,2.68l.32,1-.59,1.41c-.59.85-1.13,1.72-1.69,2.61-1.71,2.71-3.49,5.52-6.06,7.56A7.37,7.37,0,0,1,389.34,141.08ZM374.4,123.84a4.54,4.54,0,0,1,4.63,3.88c.3,2,1.63,3.12,3.76,4.72a24,24,0,0,1,2.78,2.33c1.76,1.79,4.16,2.29,5.54,1.18,2-1.56,3.46-3.92,5-6.42l1-1.53a5.78,5.78,0,0,1-3-3.06c-.85-2.16.1-4.18.86-5.79a10,10,0,0,0,.7-1.76,4.74,4.74,0,0,1,2.67-3c.15-.09.36-.2.5-.3-.72-4.83-2-8.48-6-10.58-2.26-1.19-2.47-3.72-2.58-5.08-.36-4.55-3.05-8.32-8.73-12.22l-.85-.58c-2.92-2-5.93-4-7.52-8a3.77,3.77,0,0,0-1-.48c-2.45-1-4.68-2-6.92-2.94L362.55,73c-.88-.5-1.31-.38-2.82.61a5.54,5.54,0,0,1-3.8,1.25,21.2,21.2,0,0,0-11.51,1,5.57,5.57,0,0,1-4.7,0c0,.17,0,.34,0,.5a6.85,6.85,0,0,0,.21,2.32A10.53,10.53,0,0,1,344.86,83a10.52,10.52,0,0,0,1.4,1.79,9.5,9.5,0,0,1,2.41,10.31,3.9,3.9,0,0,1-2.3,2.13c-1.71.6-4,.2-6.83-1.22-.42,0-.78.35-1.07.57a7.93,7.93,0,0,1-2.4,1.32,3.53,3.53,0,0,1-2.85.83,3.22,3.22,0,0,1-2.32-1.94l-.41-.92.37-1.43A3.08,3.08,0,0,1,332,93.1l.13-2.76a3.23,3.23,0,0,0-.91-1.94l-1.13.27c-3,.69-5.85,1.35-8.13,3a4.28,4.28,0,0,1,1.65,2.95,3.57,3.57,0,0,1-.11,1.19,3.52,3.52,0,0,1,.51.1h0c3.43,0,4.06,2,4.15,3.12a4.81,4.81,0,0,1-1.23,3.18,3.18,3.18,0,0,1-2.21,1.22l-.51,0a.83.83,0,0,0,.62.36,1.51,1.51,0,0,0,1.31-.48c5.53-5.85,12.06-3.86,16.38-2.55a20.69,20.69,0,0,1,3.76,1.69c2.83,1.5,4.4,2.23,6.72.84,2.66-1.59,4.64.79,5.4,1.69a5.72,5.72,0,0,0,.54.62,25.22,25.22,0,0,1,2.75,3.16c1.49,1.92,2.78,3.57,4.87,4.08,3.58.88,5.06,3.19,4.52,7-.35,2.46.14,3.28.36,3.51a3.13,3.13,0,0,0,2.41.42Zm24.62-10-.07.1a.45.45,0,0,0,.07-.07ZM332,88.22h0Z"/><path class="cls-3" d="M41,163.63a104.26,104.26,0,0,0-1.08,19c0,.91.33,1.9,1.34,1.91,3.66,0,4.35,3.06,5.25,5.48,2.29,6.21,6.6,10.27,12.37,13.23,3.85,2,8.22,11.52,5.71,13.55s-3.87,7.31-8.6,5.9c-2.92-.87-4,3.76-6.17,1.91-.72-.6.16-3.68-1.23-5.46-1.53-1.95-2.66-2-3.85.2-1.91,3.49-4,6.8-7.35,9.21-1.48,1.05-3.07,2.63-2.49,5.16.47,2-.79,3.6-2.35,4.85-2.82-1-6.39-1.11-6.34-5.44-5.57.33-5-5-7.07-7.81a7.67,7.67,0,0,1-1.17-7.73c1-2.91,1.65-6-.1-9.45-1.53-3,2.48-5.2,2.76-8.52.26-3,1.29-6.26.57-9.18-1.9-7.7,1.9-14,6.81-17.92C31.89,169.4,33.58,161.85,41,163.63Z"/><path class="cls-1" d="M32.94,241.15l-1.2-.42c-.44-.16-.9-.29-1.37-.43-2.07-.59-5.31-1.51-6.23-5-3.83-.71-5-4-5.76-6.15a10.48,10.48,0,0,0-1.1-2.45,9.9,9.9,0,0,1-1.51-9.83c.95-2.81,1.32-5.18,0-7.68-1.5-2.89.07-5.29,1.21-7a6.74,6.74,0,0,0,1.3-2.71c.08-1,.24-2,.4-3A14.46,14.46,0,0,0,19,191c-1.86-7.53.91-14.9,7.59-20.25a17.21,17.21,0,0,0,2.76-3.25c2.35-3.25,5.58-7.69,12.19-6.09l2.08.5-.36,2.1a101.36,101.36,0,0,0-1.05,18.32c4.18.51,5.44,4.07,6.21,6.25l.23.66c1.94,5.23,5.52,9,11.28,12,3.71,1.9,7.22,8.44,7.64,12.6.28,2.67-.68,4.06-1.53,4.75a11.74,11.74,0,0,0-1.7,2c-1.64,2.28-4.12,5.73-9,4.29-.27,0-.84.52-1.11.77-.88.8-3.24,2.92-5.88.7-1.08-.91-1.12-2.27-1.15-3.47a5.06,5.06,0,0,0-.41-2.34l-.06-.08c-1.94,3.53-4.16,7.21-8,10-1.6,1.14-1.79,1.91-1.59,2.79.6,2.59-.46,5-3.15,7.14Zm-4.46-10.43,0,2.44c0,1.7.5,2,3.18,2.76l.31.09c.89-.95.76-1.5.69-1.77-.66-2.92.48-5.46,3.4-7.53,3.08-2.19,5-5.37,6.67-8.45.36-.65,1.46-2.65,3.57-2.82s3.6,1.7,4.08,2.31a7.21,7.21,0,0,1,1.32,4.05,5.19,5.19,0,0,1,4.93-1.28c1.56.48,2.23-.14,4-2.58A14.9,14.9,0,0,1,63.12,215c.47-1.34-2.59-8.34-5.32-9.74-6.75-3.45-11.15-8.19-13.47-14.48l-.26-.7c-.92-2.6-1.35-3.25-2.88-3.28-2.09,0-3.57-1.73-3.59-4.17a118.43,118.43,0,0,1,.74-17c-2.13.24-3.48,1.92-5.35,4.51a20.29,20.29,0,0,1-3.6,4.14c-2.48,2-8,7.46-6,15.58a18.17,18.17,0,0,1-.15,7.28c-.14.89-.29,1.78-.36,2.65a10.45,10.45,0,0,1-2,4.82c-1,1.56-1.2,2-1,2.45,2.15,4.17,1.32,8,.23,11.23a5.43,5.43,0,0,0,.84,5.64,13.46,13.46,0,0,1,1.74,3.64c1,2.78,1.38,3.34,3.37,3.26Zm12.76-48.45h0Z"/><path class="cls-3" d="M204.4,24.18c-3.38,5.56-9.29,5.5-14.6,6.1-6.39.71-12,3.45-17.82,5.62-.16.06-.43.17-.44.26-.32,8.16-10.33,10.68-10.89,18.69-.1,1.51-1,3.28.1,4.52,3,3.3-.2,5.77-1.1,8.36s-4.69,1.11-5.83,2.52c-3.64,4.56-3.32-.79-4.69-1.61-3.78-2.26-2.46,2.84-5,2.94-2.31-3.39-1.53-7.39-.81-11.23.36-2,2-.09,2.87-.33,1.87-.51,3.38,2.73,5.45.19,1.52-1.87,4.33-4.28,2.74-5.88-1.77-1.77-5.15-2.54-8.34-2-7.09,1.13-9,.1-11.32-5.3,1.65-6.92,3.53-13.67,10.16-17.82,1.32-.82,2.31-2.24,4-1.48a3.21,3.21,0,0,0,4.46-1.26c.94-1.42,2.23-1.4,3.66-.93.63.21,1.71.64,1.89.42,4.47-5.71,13.1-1,17.72-7.26,1.37-1.86,5.5-2.11,8.71-.94C191.64,20,198,22.05,204.4,24.18Z"/><path class="cls-1" d="M151.52,74.35a2.77,2.77,0,0,1-.49,0c-1.95-.3-2.66-2.14-3.08-3.24a1.17,1.17,0,0,1,0-.11,4.21,4.21,0,0,1-3.71,2.9l-1.26,0-.71-1c-2.81-4.12-1.95-8.72-1.2-12.77a3.4,3.4,0,0,1,1.66-2.59,3.57,3.57,0,0,1,3.27.16,5.2,5.2,0,0,1,3.43.93,5,5,0,0,0,.66.33,2.77,2.77,0,0,1,.78-1.27,16.22,16.22,0,0,0,1.6-2,8.53,8.53,0,0,0-6-1.11c-8,1.29-11.05-.22-13.77-6.67l-.29-.68.17-.73c1.88-7.87,4-14.75,11.17-19.22.25-.16.47-.33.7-.51,1-.79,2.91-2.24,5.46-1.14,1,.42,1.19.3,1.66-.43,1-1.45,2.85-3,6.28-1.82l.33.11c2.67-2.58,6.11-2.91,9.18-3.2,3.58-.34,5.87-.67,7.54-3,2.22-3,7.49-3.12,11.33-1.72,4.45,1.63,9,3.11,13.45,4.59l8.25,2.75-1.49,2.44c-3.6,5.93-9.69,6.52-14.58,7l-1.71.17c-4.67.53-8.91,2.21-13.4,4-1,.39-2,.79-3,1.17-.67,4.19-3.47,7-6,9.57s-4.57,4.63-4.78,7.74a12.44,12.44,0,0,1-.27,1.64,5.3,5.3,0,0,0-.17,1.28c3.27,3.59,1.31,6.93.15,8.93a9.27,9.27,0,0,0-.84,1.62c-1,2.86-3.81,3.12-5.33,3.27a5.64,5.64,0,0,0-1.14.16C154.57,73,153.23,74.35,151.52,74.35Zm-4.05-4a.25.25,0,0,0,.17,0l0,0S147.52,70.36,147.47,70.34Zm0,0Zm0,0h0Zm0,0Zm0,0Zm0,0Zm0,0Zm.1-4.56a5.56,5.56,0,0,1,2.78.9A4.36,4.36,0,0,1,152,68.89l0-.06c1.08-1.35,2.77-1.51,4-1.63a5.21,5.21,0,0,0,1.49-.26,11.87,11.87,0,0,1,1.16-2.39c1.2-2,1.35-2.55.35-3.65-1.58-1.75-1.14-3.82-.85-5.2a9.5,9.5,0,0,0,.18-1c.33-4.78,3.38-7.88,6.08-10.61,2.51-2.55,4.68-4.74,4.8-8l.06-1.5,1.82-.79c1.31-.49,2.57-1,3.83-1.49,4.57-1.81,9.29-3.69,14.57-4.28l1.78-.19c3.56-.34,6.74-.65,9.13-2.54l-2.3-.77c-4.55-1.49-9.09-3-13.59-4.63-2.77-1-5.61-.51-6.09.14-3,4-7.3,4.45-10.77,4.78s-5.48.62-7,2.53c-1.17,1.48-2.93.85-4.11.45a3.41,3.41,0,0,0-1.19-.27c-1.89,2.81-4.47,3.55-7.42,2.28a3.11,3.11,0,0,0-.85.55c-.35.27-.71.54-1.08.78-5.5,3.43-7.33,8.9-9,15.68,1.52,3.46,2.44,4.23,8.56,3.24,4-.6,8.06.42,10.31,2.68,2.83,2.83-.14,6.17-1.74,8l-.84,1c-2.49,3-5.21,1.49-6.24.92a5.28,5.28,0,0,0-.66-.34,2,2,0,0,1-1.22,0,18.87,18.87,0,0,0-.38,4.74,3.42,3.42,0,0,1,1.54-1A3.53,3.53,0,0,1,147.52,65.78Z"/><path class="cls-4" d="M110.74,379.68a22.1,22.1,0,0,1,9.58,14.11c1.13,4.91,5.12,7.4,10.06,7.77,4.61.35,7.24,3.24,9.71,6.57a2,2,0,0,1-2.65,1c-10.67-3.63-19.73-9.32-24.61-20.05-.85-1.89-.22-4.19-3.14-5.39C107.67,382.83,109.24,380.77,110.74,379.68Z"/><path class="cls-1" d="M138.34,411.54a5.25,5.25,0,0,1-1.63-.27c-13.16-4.49-21.4-11.24-25.95-21.28a10.12,10.12,0,0,1-.66-2.22c-.27-1.34-.37-1.63-1.28-2a3.62,3.62,0,0,1-2.34-2.89c-.3-2.5,2.16-4.49,2.92-5l1.29-.94,1.32.88a24.42,24.42,0,0,1,10.54,15.5c1.1,4.78,5.48,5.82,8,6,5.69.42,8.85,4.08,11.37,7.47l.79,1.06-.53,1.21A4.08,4.08,0,0,1,138.34,411.54Zm-7.54-7.65c1.3.66,2.67,1.27,4.12,1.86A8,8,0,0,0,130.8,403.89Zm-16.38-17.74q.08.36.15.69a6.1,6.1,0,0,0,.34,1.26,31,31,0,0,0,2.91,5.09A20.14,20.14,0,0,0,114.42,386.15Z"/><path class="cls-4" d="M157.83,412.87c3.21-2.31,6.46-4,10.12-.82A24.55,24.55,0,0,1,157.83,412.87Z"/><path class="cls-1" d="M161.05,415.34a32.36,32.36,0,0,1-3.48-.2l-5.87-.65,4.79-3.47c2.44-1.75,7.52-5.42,12.95-.69l3.1,2.68-3.92,1.22A25.53,25.53,0,0,1,161.05,415.34Z"/><path class="cls-4" d="M143.8,411.14c3.14.31,7.43-2.6,8.66,3.08C148.71,415.62,146.07,413.92,143.8,411.14Z"/><path class="cls-1" d="M149.87,417c-4.23,0-6.84-3.21-7.83-4.42l-3.46-4.24,5.44.52a10.54,10.54,0,0,0,2.14-.2c2.33-.4,7.18-1.19,8.53,5.07l.42,1.92-1.85.7A9.86,9.86,0,0,1,149.87,417Z"/><path class="cls-3" d="M160.77,210.43a10.7,10.7,0,0,1-6.1-5.8c-.88-2.17-3.75-5.55,1.44-6.89,2.5-.65,1.15-6.13,6.36-3.91-3.05-3.35-5.1-5.41-7.42-.59-.78,1.61-1.84,4.08-4.46,3.63s-3.3-3.29-3-4.86c.7-3.84-3.91-6.65-1.47-10.72,1.63-2.73,3.82-3.39,5.62-.77,1.14,1.65,2.07.45,2.89.09,1.65-.72,2.5-2.34,1.4-3.79-1.47-1.92-1.28-3.43-.63-5.64.78-2.68-1.41-4.89-3.72-5.39-3.72-.8-4.34-1.83-1.5-4.48s.75-4.5-1.54-6.42l4.64-1.94c3.11-1.3,5.57-2.78,2.06-6.3-.89-.9-1.44-2.38-.49-3.25,1.31-1.18,1.86.78,2.8,1.21,4.67,2.1,5.81,4.87,2.29,9-.74.88,0,1.92.92,2.88,1.46-.7,1.65-2.11,2-3.29.81-2.85,4.23-3.74,5.17-2.84,2.65,2.56,6.17,2.28,9.4,3.49.89-1.93.21-3.85-2.34-4.49-2.79-.71-5-2-3.41-4.82,1.45-2.54,3.89-5.16,7.66-3.26,1.53.78,3,1.74,4.49,2.55.75.4,1.63,1,2.35.93,6-.9,7.25-.62,12.54,3.58-.48-5.54,4.45-6,7.35-7.3,3.74-1.66,5.4-3.69,5.79-7.41.23-2.1.93-3.74,3-1.27,2.84,3.34,5.41,5.47,7.66-.5a1.92,1.92,0,0,1,2.44-1.21c-1.13,2.83,3.71,2.44,2.76,5-.5,1.37-1.67,3.77-2.19,3.67-3.89-.69-5.33,3.12-8.4,4,.83,1.27,2,2.34,2.25,3.59.66,3.72,2.07,4.39,4.83,1.7,2.46-2.39,4.4-.67,6.35.82s3.21,3.31.87,5.53c-1.28,1.23-.46,2.21.29,3.15a2.41,2.41,0,0,1-.39,3.66c-2.87,2.55-2.11,5.71-1.38,8.69.85,3.5,2.74,6.31,6.67,3.43,3.49-2.54,8,2.18,11-2,2.51,3.29,5.06,6.54,7.42,9.94.16.23-1.31,1.46-1.86,2.33-1.15,1.87-3.24,3.93-1.54,6.06a7.12,7.12,0,0,0,7.28,2.22c1.43-.36,2.45-1,3.47.4.37.51,1,.91.59,1.78-1.08,2.11-2.4-.07-3.6.25a5.11,5.11,0,0,1-6-2.07c-1.1-1.42-8.84.95-8.93,2.77-.23,5.06-6.06,6.79-6.43,11.72a2.16,2.16,0,0,1-3.25,1.52c-3.49-1.87-2.54,3.35-4.32,2.86s-3.44-2.6-5.58-1.54c-1.21.6-3.12,1.44-2.49,3.44.7,2.2.51,5.1,3.38,5.94,1.16.34,2.67.14,2.95,1.53,1.18,5.89,6.81,5.87,10.59,8.34,2.22,1.45,4-1.24,6.25.12-.9,4-5,6.2-6.06,10.36-3.5-2.68-6.43-6.72-11.08-1.86-2.08,2.17-4.48,3.39-.85,6.32,1.77,1.43.34,3.12-1.43,3.16-4.12.08-7.82-1.13-10-5.09-.39-.72-.37-2.19-.8-2.3-5.38-1.37-8-6.55-12.59-9-1-.56-1.58,0-2.25.45-1.28.9-2.73.52-3.09-.62a27.9,27.9,0,0,0-4.89-9.25c-1.07-1.33,1.18-2.29,1.23-3.76-2.38-1.16-3.42.75-4.45,2.15-1.41,1.91.53,2.75,1.29,4.19,1,2,3,4.63,1.36,6.87-1.76,2.45-4.81.92-7.3,1-.44,0-.91-.44-1.34-.72-1.63-1.09.53-3.65-1.67-4.47-3.23-1.21-1.68,2.78-3.47,3.27-2,.52-1.54,2.8-2.81,4.27-1.82-1.38-3-4.69-6.11-1.93-1.27,1.14-2.43-.4-3.58-1.14-2.6-1.67-5-2.23-6.78,1.29-1.7,3.33-3.17,1.87-4.13-.56s-1.13-5.53-5-5.54c-1.28,0-1.37-1.51-1-2.47,1-2.75,1.82-5.48,1.4-8.46a1,1,0,0,1,1.3-1.14c3.17.64,6.82-.4,9.23,2.63v-6.84l.7,0-.23-.61Zm74.84-12.5.9.77-1-.74c-.52-1.1-1-2.2-1.69-3.59-1.85,4.89-4.55,1.45-7.09.64-.2,3,1.86,3.52,3.5,3.84S233.63,197.26,235.61,197.93Zm-41.56-7.78c2.07-2.34,5.71-1.83,6-5.29.05-.49.09-2.53-1.77-2.43C193.79,182.66,193.33,185.58,194.05,190.15Z"/><path class="cls-1" d="M225.8,249.83c-5.44,0-9.34-2.11-11.6-6.28a5.44,5.44,0,0,1-.52-1.53c-3.09-1.11-5.35-3.26-7.37-5.18a23.12,23.12,0,0,0-4.25-3.47l-.19.12a4.6,4.6,0,0,1-4.11.71,3.85,3.85,0,0,1-2.47-2.5c-.14-.47-.3-.93-.47-1.38a5.68,5.68,0,0,1-1,2.23c-2.08,2.88-5.21,2.41-7.29,2.09-.62-.09-1.26-.15-1.82-.19a5.12,5.12,0,0,1-2.43-.95,4,4,0,0,1-1.71-2.25,3.26,3.26,0,0,1-1.79,1.2c0,.05-.16.51-.26.81a7.39,7.39,0,0,1-1.42,2.75l-1.39,1.62L174,236.34a13.12,13.12,0,0,1-1.57-1.52,6.42,6.42,0,0,0-1-1s-.24.15-.61.48c-2.41,2.18-4.84.24-5.76-.48a5.46,5.46,0,0,0-.57-.44c-1.55-1-2.2-1-2.39-.93s-.75.59-1.13,1.33c-1.12,2.2-2.63,3.14-4.18,3.19-1.72-.08-3.11-1.41-4.1-4-.19-.48-.36-1-.52-1.48-.72-2.25-.94-2.61-2.37-2.61a3.39,3.39,0,0,1-2.8-1.43,4.64,4.64,0,0,1-.37-4.1c.89-2.45,1.64-4.86,1.29-7.35a3.3,3.3,0,0,1,1-2.88,3.47,3.47,0,0,1,3-.83,17.48,17.48,0,0,0,2.51.23,17.32,17.32,0,0,1,4,.51v-1.21a12.81,12.81,0,0,1-5.88-6.38c-.12-.3-.29-.63-.46-1-.73-1.43-1.7-3.33-1.12-5.31a5.92,5.92,0,0,1-4.51-2.46,7.11,7.11,0,0,1-1.13-5.14,5.92,5.92,0,0,0-.88-3.21c-1-2.07-2.31-4.92-.3-8.28,1.7-2.83,3.63-3.48,4.95-3.52a5.12,5.12,0,0,1,4.17,2.16,3.8,3.8,0,0,1,.44-.23,1.09,1.09,0,0,0,.54-.41c-2.21-2.74-1.73-5.25-1.05-7.57a1.49,1.49,0,0,0-.16-1.25,3,3,0,0,0-1.86-1.27c-1.5-.32-4.3-.93-5-3.26-.56-2,.89-3.73,2.38-5.12a2,2,0,0,0,.62-.81c0-.32-.72-1.06-2.06-2.19l-2.87-2.4,8.09-3.39a7.07,7.07,0,0,0,2.39-1.32,11.35,11.35,0,0,0-1.06-1.26,5.45,5.45,0,0,1-1.66-3.82,3.79,3.79,0,0,1,1.25-2.74,3.66,3.66,0,0,1,2.5-1,3.86,3.86,0,0,1,2.7,1.6c3.3,1.63,5.11,3.43,5.62,5.69,0,.14.06.27.08.41a6.85,6.85,0,0,1,1.2-.46,4.28,4.28,0,0,1,4.18.77s0,0,0,0a3.88,3.88,0,0,1-.43-.77,5,5,0,0,1,.49-4.57c3.82-6.67,8.71-5.15,10.66-4.15.91.46,1.79,1,2.67,1.49.62.37,1.25.74,1.88,1.09l.51.28a8.43,8.43,0,0,0,.76.4c5.09-.82,7.29-.64,10.9,1.77,1.34-2.93,4.44-4,6.52-4.74.55-.19,1.08-.37,1.54-.58,3.07-1.36,4.15-2.72,4.45-5.57.1-.93.41-3.72,2.66-4.42q2.19-.64,4.38,1.91c1.69,2,2.38,2.39,2.63,2.46a10,10,0,0,0,1.15-2.29,4.19,4.19,0,0,1,5.35-2.54l2.21.8-.73,1.84a3.19,3.19,0,0,0,.32.2c.95.58,3.44,2.09,2.34,5.11-2.06,5.62-3.94,5.28-4.75,5.14-1.25-.22-2,.34-3.4,1.54-.37.32-.76.65-1.19,1a6.11,6.11,0,0,1,1.1,2.44,7.94,7.94,0,0,0,.26,1.12c.19-.15.43-.36.73-.65,3.74-3.64,7.19-1,9,.42,1.55,1.18,3.22,2.71,3.34,4.93a5.33,5.33,0,0,1-1.73,4,3.4,3.4,0,0,0,.21.28,4.69,4.69,0,0,1-.63,6.83c-1.67,1.48-1.49,3.11-.68,6.44.5,2,1.15,2.77,1.42,2.86s.72,0,1.69-.73c2.37-1.73,5-1.25,6.88-.9,2.29.42,2.9.42,3.62-.59l1.79-2.52,3.3,4.31c2.06,2.69,4.13,5.38,6.06,8.17,1.13,1.64-.24,3.1-1,3.89a6.68,6.68,0,0,0-.81.94c-.22.36-.47.72-.73,1.08-1.26,1.83-1.21,2.07-1,2.35a4.82,4.82,0,0,0,4.94,1.44l.59-.17c1.12-.35,3.48-1.07,5.29,1.46,1.24,1.41,1.47,2.76.76,4.14s-2.18,3.09-5.27,1.59l-.16-.08a7.2,7.2,0,0,1-7.62-2.53,15.52,15.52,0,0,0-5.25,1.61c-.34,3.07-2.24,5.15-3.78,6.84s-2.48,2.81-2.6,4.37a4.34,4.34,0,0,1-2.28,3.4A4.51,4.51,0,0,1,234,211a.69.69,0,0,0,0,.13c-.86,2.35-2.22,3.29-4,2.78a9.39,9.39,0,0,1-2.34-1.09c-1.14-.66-1.37-.71-1.62-.6a5.88,5.88,0,0,0-1.41.84,5.83,5.83,0,0,1,.52,1.68c.42,2,.64,2.41,1.39,2.63.21.06.43.09.65.13,1,.16,3.39.55,3.91,3.15.56,2.79,2.37,3.65,5.52,4.91a22.73,22.73,0,0,1,4.08,2c.14.1.21.14,1.18-.17a5.64,5.64,0,0,1,5,.24l1.43.85-.37,1.62a14.88,14.88,0,0,1-3.43,6,11.77,11.77,0,0,0-2.64,4.35l-.84,3.37-2.76-2.1c-.56-.43-1.11-.89-1.65-1.35-3.12-2.63-4-3.21-6.4-.75-.32.34-.65.66-1,1a10.14,10.14,0,0,0-1.09,1.14c.11,0,.37.37,1,.87A3.88,3.88,0,0,1,230.5,247a4.53,4.53,0,0,1-4.28,2.87ZM202,228.66a3.91,3.91,0,0,1,1.86.5,25.65,25.65,0,0,1,5.58,4.37c2,1.94,3.95,3.77,6.51,4.42,1.62.42,1.94,2,2.12,2.86a3,3,0,0,0,.15.62c1.32,2.45,3.54,3.69,6.92,3.83a5.26,5.26,0,0,1-1.72-3.42c-.08-2,1.31-3.36,2.54-4.54l.82-.81c4.93-5.15,9.1-2.48,11.85-.25a26.23,26.23,0,0,1,2.19-3q.49-.6.93-1.17a4.88,4.88,0,0,1-3.67-.72,20,20,0,0,0-3.28-1.55c-3.12-1.24-7-2.79-8.19-7.74l-.29,0a10.7,10.7,0,0,1-1.18-.25c-3.53-1-4.17-4.07-4.58-6.08-.1-.47-.2-.93-.33-1.36-1.2-3.78,2.33-5.52,3.48-6.1,2.7-1.32,4.85-.07,6.13.68a.05.05,0,0,0,0,0,4.21,4.21,0,0,1,2.31-2.5,4.3,4.3,0,0,1,3.68.45c.14-2.9,2-5,3.68-6.79s2.56-2.9,2.64-4.55c.09-1.95,2-3.51,5.56-4.64.44-.14.89-.27,1.36-.38-1.2-2.67.54-5.17,1.53-6.61l.6-.88a9,9,0,0,1,.94-1.2c-1.58-2.22-3.24-4.38-4.89-6.54-2.08,1.15-4.34.73-6,.43s-2.62-.44-3.36.09c-2.13,1.56-4.13,2-6,1.34-2-.75-3.48-2.79-4.28-6.07s-1.82-7.46,2.08-10.93l.1-.57c-1.88-2.34-1.9-4.43,0-6.19.52-.49.58-.75.58-.76h0s-.11-.42-1.27-1.31c-2.45-1.88-2.59-1.76-3.37-1-1.28,1.25-3.22,2.85-5.43,2.11s-2.91-3.22-3.23-5a5.37,5.37,0,0,0-.94-1.4c-.33-.43-.68-.88-1-1.34l-1.68-2.59,3-.85a7.12,7.12,0,0,0,2.3-1.52c1.36-1.15,3.16-2.66,5.82-2.66h0a17.6,17.6,0,0,0,.76-1.6l-.23-.14a7.71,7.71,0,0,1-1.37-1,5.3,5.3,0,0,1-3.84,3.61c-2.39.41-4.3-1.21-6-3-.66,3.93-2.8,6.45-7,8.32-.58.26-1.22.49-1.9.72-3.15,1.1-4.32,1.76-4.1,4.3l.45,5.27-4.14-3.29c-4.88-3.87-5.48-3.9-10.79-3.12a5.17,5.17,0,0,1-3.37-.94c-1.09-.6-1.77-1-2.45-1.4s-1.57-.94-2.39-1.35-2.57-1.29-4.65,2.35a1.48,1.48,0,0,0-.23.57h0a5.75,5.75,0,0,0,2.22.91,5.62,5.62,0,0,1,3.95,3,5.42,5.42,0,0,1-.1,4.68l-.88,1.93-2-.74a20.1,20.1,0,0,0-3-.79c-2.21-.47-4.7-1-6.84-2.88a2.29,2.29,0,0,0-1.74,1.51c-.42,1.61-1,3.64-3.18,4.72l-1.52.73-1.15-1.23c-2-2.13-2.08-3.77-1.59-4.94a13.67,13.67,0,0,1-3.43,1.91l-1.49.62a5.31,5.31,0,0,1,1.13,3,5.59,5.59,0,0,1-2.07,4.26l-.4.39.83.2A7.49,7.49,0,0,1,157,167a6,6,0,0,1,.61,4.86c-.57,2-.53,2.56.26,3.61a4.37,4.37,0,0,1,.83,3.83,5.28,5.28,0,0,1-3.13,3.43c-3.09,2-4.88.28-5.68-.89-.39-.58-.64-.67-.65-.67a3.63,3.63,0,0,0-1.13,1.32c-.7,1.17-.44,2,.51,4a9.62,9.62,0,0,1,1.24,6,2.59,2.59,0,0,0,.38,1.71,1.11,1.11,0,0,0,.78.49c.68.13,1-.22,1.91-2.16s2.17-4,4.48-4.3c2.62-.4,4.75,1.91,6.79,4.14l7,7.74-9.63-4.11a2.69,2.69,0,0,0-1.25-.34c0,.06-.23.59-.37.94-.5,1.15-1.25,2.9-3.27,3.42-1.11.29-1.35.58-1.36.59a9.67,9.67,0,0,0,.83,1.9c.24.47.47.92.64,1.33a8,8,0,0,0,3.16,3.69l1.57-2.49,3.19,7.76-1.71,0v11.06l-4.07-5.14c-1-1.27-2.38-1.39-4.7-1.5-.55,0-1.1-.05-1.65-.1a20.79,20.79,0,0,1-1.47,7.43c3.78.6,4.79,3.73,5.42,5.68.13.41.26.82.42,1.22l.06.16a6.42,6.42,0,0,1,3.91-3.47c2.34-.63,4.58.55,6.05,1.5.31.2.63.45.95.7.1.08.21.18.33.26a4.62,4.62,0,0,1,6.44.1,4.5,4.5,0,0,1,2.33-2.35l.06-.26a4.21,4.21,0,0,1,1.93-3.11,4.06,4.06,0,0,1,3.49,0c2.79,1,2.58,3.65,2.51,4.63,0,.12,0,.29,0,.42a16.53,16.53,0,0,1,2.27.24c2,.31,2.53.26,2.89-.24.51-.71-.11-1.94-1-3.6l-.49-.89a4.58,4.58,0,0,0-.53-.7c-.73-.84-2.66-3.08-.56-5.9,1.2-1.68,3.37-4.75,7.28-2.85l1.33.64,0,1.48a5,5,0,0,1-1.23,2.9,29.88,29.88,0,0,1,4.55,8.65A4.63,4.63,0,0,1,202,228.66Zm-17.39.89-.47,2.44,1.13-2a1.2,1.2,0,0,0-.3-.1.42.42,0,0,0,0,.16.88.88,0,0,0-.06-.17c-.08,0-.14-.07-.25,0h.24A.93.93,0,0,0,184.63,229.55Zm-25.57-81.43a4.36,4.36,0,0,1,.19,2.34c0,.13-.05.25-.08.37a2.68,2.68,0,0,0,.51-1.79A1.89,1.89,0,0,0,159.06,148.12Zm71.63,53.06a5.1,5.1,0,0,1-.86-.08c-1.42-.28-5.69-1.12-5.35-6.25l.2-2.91,2.78.9a12.11,12.11,0,0,1,2.29,1.08,8.53,8.53,0,0,0,1.47.72c0-.08.23-.38.49-1.08l1.91-5L238,197l-2.87,3.55-.55-.42a6.16,6.16,0,0,0-1,.37A7.17,7.17,0,0,1,230.69,201.18Zm-38.14-5.87-.75-4.8c-.44-2.78-.65-5.9,1.11-8.07a6.9,6.9,0,0,1,5.27-2.29,3.82,3.82,0,0,1,3,1.11,5,5,0,0,1,1.17,3.78c-.3,3.45-2.81,4.58-4.47,5.33a6,6,0,0,0-2.11,1.29Zm5.23-10.54a2.09,2.09,0,0,0-1.32.54,1.94,1.94,0,0,0-.33.84C197.53,185.51,197.72,185.32,197.78,184.77Z"/><path class="cls-3" d="M386.33,150.9c-2.7.56-2.84-4-6.87-2.08l6.11-9.35c.92,1.89-.13,4.11,3.11,4.53,6,.8,7.87,7.83,3.69,12.26a1.61,1.61,0,0,1-2.66-.11,45.31,45.31,0,0,1-2.55-4.52l-.15-1.25Z"/><path class="cls-1" d="M391.05,159.19h-.25a4,4,0,0,1-2.94-1.7,28.91,28.91,0,0,1-2-3.41l-.45-.87a5.54,5.54,0,0,1-3.26-1.87c-.86-.88-.86-.86-1.71-.46l-7.36,3.56,12.75-19.57,1.77,3.6a8.39,8.39,0,0,1,.69,2.43,5.67,5.67,0,0,0,.15.76c.05,0,.19,0,.52.09a8.89,8.89,0,0,1,7.4,5.85A10,10,0,0,1,394,157.82,4.09,4.09,0,0,1,391.05,159.19Zm-1.67-8.25.54,1c.39.75.78,1.5,1.22,2.21a5.36,5.36,0,0,0,.93-5.06,4.28,4.28,0,0,0-3.69-2.86,5.07,5.07,0,0,1-3.43-1.68l-1.36,2.08a7.87,7.87,0,0,1,1.81,1.46l.36.35,2.76-2.09ZM385,149.07l1.18,1.58Z"/><path class="cls-3" d="M199.38,397.31c.2,1.22.71,2.54-1.29,2.59-3.1.09-7.78-6.5-6.58-9.39.38-.92.93-2,2.1-2s1,1.09,1,1.9c.07,2.06,1.85,2.84,3.15,3.76S199.91,395.76,199.38,397.31Z"/><path class="cls-1" d="M198,402.18c-3.31,0-6-3.58-6.8-4.69-.95-1.39-3-4.92-1.81-7.86.34-.83,1.4-3.41,4.18-3.43a2.79,2.79,0,0,1,2.37.9,3.9,3.9,0,0,1,1,3c0,.69.27.95,1.47,1.72l.71.48c1,.7,3.22,2.27,2.61,5.14a4.08,4.08,0,0,1-.57,3.48,3.75,3.75,0,0,1-3,1.29Zm-2.92-7.11a8.67,8.67,0,0,0,2.05,2.12l.07-.62c0-.08,0-.13,0-.14,0,.15-.31-.1-.77-.43l-.58-.38C195.67,395.45,195.39,395.28,195.1,395.07Zm2.16,1.36Z"/><path class="cls-3" d="M169.46,73.43c.15,2.42-5.86,6.24-7.69,5.27-.52-.28-1.2-.41-1.19-1.38,0-2.27,5.84-6.1,7.88-5A3.53,3.53,0,0,1,169.46,73.43Z"/><path class="cls-1" d="M162.51,81.13a3.79,3.79,0,0,1-1.81-.42,3.55,3.55,0,0,1-2.4-3.41c0-3,3.61-5.31,4.71-6,1.49-.89,4.33-2.22,6.52-1.06a4.8,4.8,0,0,1,1.67,1.64l.49.58.05.78c.18,2.87-2.94,5.2-4.29,6.06A10,10,0,0,1,162.51,81.13Zm-.19-4.7-.55,2.27.95-1.79A1,1,0,0,0,162.32,76.43Zm3.37-1.38A11.5,11.5,0,0,0,164,76.17,13.84,13.84,0,0,0,165.69,75.05Z"/><path class="cls-3" d="M74.87,212.08c-1,.35-1.28-.22-1.33-.67-.18-1.73-3.15-2.07-2.14-4.3.33-.71,1-.84,1.71-.33C75,208.18,76.35,209.75,74.87,212.08Z"/><path class="cls-1" d="M74.34,214.47a3,3,0,0,1-3.06-2.81c0,.17-.24,0-.41-.19a4.25,4.25,0,0,1-1.54-5.31,3.24,3.24,0,0,1,2.14-1.86,3.52,3.52,0,0,1,3,.63c4.34,3.15,3.67,6.29,2.35,8.38l-.42.66-.75.27A3.79,3.79,0,0,1,74.34,214.47Zm1.47-3.3h0Z"/><path class="cls-4" d="M335,95.81c-.68.65-1.53,1.16-2,0-.32-.72.59-1,1.23-1.28Z"/><path class="cls-1" d="M333.79,98.79a3.55,3.55,0,0,1-.57-.05,3.19,3.19,0,0,1-2.32-1.94l-.41-.92.37-1.43a4,4,0,0,1,2.59-2l1.7-.6,2.6,4-1.15,1.63A4.11,4.11,0,0,1,333.79,98.79Zm.93-2.78.25.71a2.41,2.41,0,0,0,.09-1.8,1.34,1.34,0,0,0-.82-.62,1.36,1.36,0,0,0-1,0l.59.48.4-.26.29.82.52.42-.32.14,0,.06.3-.2Z"/><path class="cls-4" d="M194.05,190.15c-.72-4.57-.26-7.49,4.24-7.72,1.86-.1,1.82,1.94,1.77,2.43C199.76,188.32,196.12,187.81,194.05,190.15Z"/><path class="cls-1" d="M192.55,195.31l-.75-4.8c-.44-2.78-.65-5.9,1.11-8.07a6.9,6.9,0,0,1,5.27-2.29,3.82,3.82,0,0,1,3,1.11,5,5,0,0,1,1.17,3.78c-.3,3.45-2.81,4.58-4.47,5.33a6,6,0,0,0-2.11,1.29Zm5.23-10.54a2.09,2.09,0,0,0-1.32.54,1.94,1.94,0,0,0-.33.84C197.53,185.51,197.72,185.32,197.78,184.77Z"/><path class="cls-4" d="M235.61,197.94c-2-.68-3.58,1.26-5.35.91s-3.7-.82-3.5-3.84c2.54.81,5.24,4.25,7.09-.64.66,1.39,1.17,2.49,1.69,3.59Z"/><path class="cls-1" d="M230.69,201.18a5.1,5.1,0,0,1-.86-.08c-1.42-.28-5.69-1.12-5.35-6.25l.2-2.91,2.78.9a12.11,12.11,0,0,1,2.29,1.08,7.85,7.85,0,0,0,1.47.72c0-.08.23-.38.49-1.08l1.91-5,3.55,7.55,5.32,1.83-8.13,2.91-.27-.57-.58.22A7.07,7.07,0,0,1,230.69,201.18Z"/><path class="cls-4" d="M235.54,198l1,.74-.9-.77Z"/><polygon class="cls-1" points="235.12 200.51 230.82 197.22 234.35 195.96 235.48 194.83 237.99 196.96 236.49 198.81 237.22 199.55 236.31 200.11 236.05 199.37 235.12 200.51"/><path class="cls-4" d="M160.77,210.43l.42-.66.23.61-.7,0Z"/><path class="cls-1" d="M161.29,213.85l-2.44-2.18-2.66-3.76,3.4.12,1.93-3.06,3.19,7.76-2.67,0Zm-2.44-4.64,1.66,1.06Z"/><path class="cls-4" d="M386.33,150.9l.68-.52.15,1.25Z"/><polygon class="cls-1" points="390.21 157.38 382.72 150.74 384.97 149.07 386.15 150.65 386.2 150.63 385.34 148.79 388.52 146.38 389.43 151.34 390.21 157.38"/><path class="cls-1" d="M1309.49,439.89H234.8a9.13,9.13,0,1,1,0-18.25H1300.36V23H255.43a9.13,9.13,0,1,1,0-18.25H1309.49a9.12,9.12,0,0,1,9.12,9.12V430.76A9.12,9.12,0,0,1,1309.49,439.89Z"/><path class="cls-1" d="M575,138.28c37.41,0,62.58,23.9,62.58,61.31,0,37.06-26.69,61-66,61h-24v45.92H498.22V138.28Zm-27.39,85.79H561.5c16.44,0,26.23-8.28,26.23-24.37s-9.79-24.24-25.87-24.24H547.64Z"/><path class="cls-1" d="M703.81,269.05c0-24.71,19-38.11,53.38-40.21l28.2-1.74v-6.3c0-8.62-6.52-13.28-15.5-13.28-9.78,0-16.08,5.35-16.78,11.89H710.45c1.17-27.51,24.48-44.87,62-44.87,35.66,0,59.55,17.83,59.55,43.93v88H785.39V289.21h-.93c-6.76,12.59-22.37,19.12-37.29,19.12C723.74,308.33,703.81,292.24,703.81,269.05Zm81.58-8v-8.39L765.12,254c-9.09.69-14.23,5-14.23,11.3,0,7,5.72,11.07,14.11,11.07C775.6,276.39,785.39,270.45,785.39,261Z"/><path class="cls-1" d="M943.54,306.46l-51-168.18h56.87l26.93,121.33h.93l26.92-121.33h54.55l-51.05,168.18Z"/><path class="cls-1" d="M1233.68,306.46H1115V138.28h118.64v39.29h-69.23v27.15h64.91v35.43h-64.91v27h69.23Z"/></svg>