<?xml version="1.0" encoding="utf-8"?>
<!-- Generator: Adobe Illustrator 24.0.1, SVG Export Plug-In . SVG Version: 6.00 Build 0)  -->
<svg version="1.1" id="图层_1" xmlns="http://www.w3.org/2000/svg" xmlns:xlink="http://www.w3.org/1999/xlink" x="0px" y="0px"
	 viewBox="0 0 219.93 214.5" style="enable-background:new 0 0 219.93 214.5;" xml:space="preserve">
<style type="text/css">
	.st0{opacity:0.69;}
	.st1{fill:#6695FF;}
	.st2{fill:#F5F5EE;}
	.st3{fill:#FFCA55;}
	.st4{fill:#1F7AFF;}
	.st5{fill:#FF8373;}
	.st6{fill:#00E3E8;}
</style>
<g>
	<g>
		<g>
			<g class="st0">
				<path class="st1" d="M116.14,138.82c0.02-11.42-3.65-22.54-10.46-31.71c-17.28,23.83-50.6,29.14-74.43,11.86
					c-4.41-3.2-8.31-7.06-11.56-11.44c-17.28,23.83-11.96,57.16,11.87,74.43s57.16,11.96,74.43-11.87
					C112.59,161,116.14,150.05,116.14,138.82"/>
			</g>
			<g>
				<path class="st2" d="M116.14,138.82c0.02-11.42-3.65-22.54-10.46-31.71c-17.28,23.83-50.6,29.14-74.43,11.86
					c-4.41-3.2-8.31-7.06-11.56-11.44c-17.28,23.83-11.96,57.16,11.87,74.43s57.16,11.96,74.43-11.87
					C112.59,161,116.14,150.05,116.14,138.82"/>
			</g>
		</g>
		<g>
			<g class="st0">
				<path class="st1" d="M105.83,106.9c-28.1-8.79-43.75-38.7-34.96-66.79c1.7-5.43,4.26-10.56,7.58-15.18
					c-28.1-8.79-58,6.85-66.8,34.95s6.85,58,34.95,66.8c21.94,6.87,45.82-1.11,59.23-19.78"/>
			</g>
			<g>
				<path class="st3" d="M105.83,106.9c-28.1-8.79-43.75-38.7-34.96-66.79c1.7-5.43,4.26-10.56,7.58-15.18
					c-28.1-8.79-58,6.85-66.8,34.95s6.85,58,34.95,66.8c21.94,6.87,45.82-1.11,59.23-19.78"/>
			</g>
		</g>
		<g>
			<g class="st0">
				<path class="st1" d="M159.34,53.76c5.32,0,10.62,0.79,15.71,2.36v-0.06c0-29.44-23.87-53.31-53.31-53.31
					S68.43,26.62,68.43,56.06c0,23.39,15.25,44.05,37.61,50.94c0.05-29.4,23.9-53.2,53.3-53.2"/>
			</g>
			<g>
				<path class="st4" d="M159.34,53.76c5.32,0,10.62,0.79,15.71,2.36v-0.06c0-29.44-23.87-53.31-53.31-53.31
					S68.43,26.62,68.43,56.06c0,23.39,15.25,44.05,37.61,50.94c0.05-29.4,23.9-53.2,53.3-53.2"/>
			</g>
		</g>
		<g>
			<g class="st0">
				<path class="st1" d="M121.73,104.79c29.41,0,53.27,23.82,53.31,53.23c28.13-8.68,43.91-38.51,35.23-66.65
					c-8.68-28.13-38.51-43.91-66.65-35.23c-22.35,6.89-37.6,27.55-37.6,50.94v0.11c5.09-1.56,10.38-2.35,15.7-2.35"/>
			</g>
			<g>
				<path class="st5" d="M121.73,104.79c29.41,0,53.27,23.82,53.31,53.23c28.13-8.68,43.91-38.51,35.23-66.65
					c-8.68-28.13-38.51-43.91-66.65-35.23c-22.35,6.89-37.6,27.55-37.6,50.94v0.11c5.09-1.56,10.38-2.35,15.7-2.35"/>
			</g>
		</g>
		<path class="st6" d="M175.05,158.12c-0.03-29.46-23.94-53.33-53.4-53.3c-5.38,0.01-10.73,0.82-15.86,2.43
			c17.43,23.73,12.33,57.1-11.4,74.54c-4.73,3.47-9.99,6.14-15.59,7.9c17.42,23.72,50.78,28.83,74.5,11.41
			C166.98,191.06,175.06,175.1,175.05,158.12"/>
	</g>
	<g>
		<path class="st2" d="M141.55,81.45l-2.99,11.79l-14.86-3.77l3.77-14.86l11.9,3.02c1.3,0.33,2.68,0.12,3.82-0.59l4.6-2.85
			c1.09-0.68,1.87-1.75,2.19-2.99l2.01-7.92l10.95,2.78L160.16,77l-7.95-2.02c-1.3-0.33-2.68-0.12-3.82,0.59l-4.65,2.88
			C142.65,79.14,141.86,80.21,141.55,81.45z"/>
		<g>
			
				<rect x="144.66" y="88.5" transform="matrix(0.2455 -0.9694 0.9694 0.2455 22.5294 213.6273)" class="st2" width="7.68" height="7.68"/>
		</g>
		<g>
			
				<rect x="156.86" y="83.91" transform="matrix(0.2455 -0.9694 0.9694 0.2455 36.5042 219.4791)" class="st2" width="4.77" height="4.77"/>
		</g>
	</g>
</g>
</svg>
